ISO-10303-21;
HEADER;
/* Generated by software containing ST-Developer
 * from STEP Tools, Inc. (www.steptools.com) 
 */

FILE_DESCRIPTION(
/* description */ (''),
/* implementation_level */ '2;1');

FILE_NAME(
/* name */ 'Heatsink.step',
/* time_stamp */ '2025-05-04T22:39:43-07:00',
/* author */ (''),
/* organization */ (''),
/* preprocessor_version */ 'ST-DEVELOPER v20.1',
/* originating_system */ 'Autodesk Translation Framework v14.4.0.0',
/* authorisation */ '');

FILE_SCHEMA (('AUTOMOTIVE_DESIGN { 1 0 10303 214 3 1 1 }'));
ENDSEC;

DATA;
#10=MECHANICAL_DESIGN_GEOMETRIC_PRESENTATION_REPRESENTATION('',(#13),#635);
#11=SHAPE_REPRESENTATION_RELATIONSHIP('SRR','None',#642,#12);
#12=ADVANCED_BREP_SHAPE_REPRESENTATION('',(#14),#634);
#13=STYLED_ITEM('',(#652),#14);
#14=MANIFOLD_SOLID_BREP('Body1',#367);
#15=FACE_BOUND('',#66,.T.);
#16=FACE_BOUND('',#67,.T.);
#17=FACE_BOUND('',#68,.T.);
#18=FACE_BOUND('',#69,.T.);
#19=FACE_BOUND('',#70,.T.);
#20=FACE_BOUND('',#71,.T.);
#21=FACE_BOUND('',#72,.T.);
#22=FACE_BOUND('',#73,.T.);
#23=FACE_BOUND('',#81,.T.);
#24=FACE_BOUND('',#82,.T.);
#25=FACE_BOUND('',#83,.T.);
#26=FACE_BOUND('',#84,.T.);
#27=FACE_BOUND('',#85,.T.);
#28=FACE_BOUND('',#86,.T.);
#29=FACE_BOUND('',#87,.T.);
#30=FACE_BOUND('',#88,.T.);
#31=PLANE('',#408);
#32=PLANE('',#409);
#33=PLANE('',#415);
#34=PLANE('',#418);
#35=PLANE('',#421);
#36=PLANE('',#422);
#37=FACE_OUTER_BOUND('',#55,.T.);
#38=FACE_OUTER_BOUND('',#56,.T.);
#39=FACE_OUTER_BOUND('',#57,.T.);
#40=FACE_OUTER_BOUND('',#58,.T.);
#41=FACE_OUTER_BOUND('',#59,.T.);
#42=FACE_OUTER_BOUND('',#60,.T.);
#43=FACE_OUTER_BOUND('',#61,.T.);
#44=FACE_OUTER_BOUND('',#62,.T.);
#45=FACE_OUTER_BOUND('',#63,.T.);
#46=FACE_OUTER_BOUND('',#64,.T.);
#47=FACE_OUTER_BOUND('',#65,.T.);
#48=FACE_OUTER_BOUND('',#74,.T.);
#49=FACE_OUTER_BOUND('',#75,.T.);
#50=FACE_OUTER_BOUND('',#76,.T.);
#51=FACE_OUTER_BOUND('',#77,.T.);
#52=FACE_OUTER_BOUND('',#78,.T.);
#53=FACE_OUTER_BOUND('',#79,.T.);
#54=FACE_OUTER_BOUND('',#80,.T.);
#55=EDGE_LOOP('',(#241,#242,#243,#244));
#56=EDGE_LOOP('',(#245,#246,#247,#248));
#57=EDGE_LOOP('',(#249,#250,#251,#252));
#58=EDGE_LOOP('',(#253,#254,#255,#256));
#59=EDGE_LOOP('',(#257,#258,#259,#260));
#60=EDGE_LOOP('',(#261,#262,#263,#264));
#61=EDGE_LOOP('',(#265,#266,#267,#268));
#62=EDGE_LOOP('',(#269,#270,#271,#272));
#63=EDGE_LOOP('',(#273,#274,#275,#276));
#64=EDGE_LOOP('',(#277,#278,#279,#280));
#65=EDGE_LOOP('',(#281,#282,#283,#284,#285,#286,#287,#288));
#66=EDGE_LOOP('',(#289));
#67=EDGE_LOOP('',(#290));
#68=EDGE_LOOP('',(#291));
#69=EDGE_LOOP('',(#292));
#70=EDGE_LOOP('',(#293));
#71=EDGE_LOOP('',(#294));
#72=EDGE_LOOP('',(#295));
#73=EDGE_LOOP('',(#296));
#74=EDGE_LOOP('',(#297,#298,#299,#300));
#75=EDGE_LOOP('',(#301,#302,#303,#304));
#76=EDGE_LOOP('',(#305,#306,#307,#308));
#77=EDGE_LOOP('',(#309,#310,#311,#312));
#78=EDGE_LOOP('',(#313,#314,#315,#316));
#79=EDGE_LOOP('',(#317,#318,#319,#320));
#80=EDGE_LOOP('',(#321,#322,#323,#324,#325,#326,#327,#328));
#81=EDGE_LOOP('',(#329));
#82=EDGE_LOOP('',(#330));
#83=EDGE_LOOP('',(#331));
#84=EDGE_LOOP('',(#332));
#85=EDGE_LOOP('',(#333));
#86=EDGE_LOOP('',(#334));
#87=EDGE_LOOP('',(#335));
#88=EDGE_LOOP('',(#336));
#89=LINE('',#538,#113);
#90=LINE('',#544,#114);
#91=LINE('',#550,#115);
#92=LINE('',#556,#116);
#93=LINE('',#562,#117);
#94=LINE('',#568,#118);
#95=LINE('',#574,#119);
#96=LINE('',#580,#120);
#97=LINE('',#587,#121);
#98=LINE('',#590,#122);
#99=LINE('',#593,#123);
#100=LINE('',#595,#124);
#101=LINE('',#596,#125);
#102=LINE('',#599,#126);
#103=LINE('',#603,#127);
#104=LINE('',#607,#128);
#105=LINE('',#612,#129);
#106=LINE('',#615,#130);
#107=LINE('',#616,#131);
#108=LINE('',#620,#132);
#109=LINE('',#623,#133);
#110=LINE('',#624,#134);
#111=LINE('',#628,#135);
#112=LINE('',#630,#136);
#113=VECTOR('',#429,0.8115);
#114=VECTOR('',#436,0.8115);
#115=VECTOR('',#443,0.8115);
#116=VECTOR('',#450,0.8115);
#117=VECTOR('',#457,1.632);
#118=VECTOR('',#464,1.632);
#119=VECTOR('',#471,1.632);
#120=VECTOR('',#478,1.632);
#121=VECTOR('',#485,10.);
#122=VECTOR('',#488,10.);
#123=VECTOR('',#491,10.);
#124=VECTOR('',#492,10.);
#125=VECTOR('',#493,10.);
#126=VECTOR('',#496,10.);
#127=VECTOR('',#499,10.);
#128=VECTOR('',#502,10.);
#129=VECTOR('',#509,10.);
#130=VECTOR('',#512,10.);
#131=VECTOR('',#513,10.);
#132=VECTOR('',#518,10.);
#133=VECTOR('',#521,10.);
#134=VECTOR('',#522,10.);
#135=VECTOR('',#527,10.);
#136=VECTOR('',#530,10.);
#137=CIRCLE('',#382,0.8115);
#138=CIRCLE('',#383,0.8115);
#139=CIRCLE('',#385,0.8115);
#140=CIRCLE('',#386,0.8115);
#141=CIRCLE('',#388,0.8115);
#142=CIRCLE('',#389,0.8115);
#143=CIRCLE('',#391,0.8115);
#144=CIRCLE('',#392,0.8115);
#145=CIRCLE('',#394,1.632);
#146=CIRCLE('',#395,1.632);
#147=CIRCLE('',#397,1.632);
#148=CIRCLE('',#398,1.632);
#149=CIRCLE('',#400,1.632);
#150=CIRCLE('',#401,1.632);
#151=CIRCLE('',#403,1.632);
#152=CIRCLE('',#404,1.632);
#153=CIRCLE('',#406,3.);
#154=CIRCLE('',#407,3.);
#155=CIRCLE('',#410,3.);
#156=CIRCLE('',#411,3.);
#157=CIRCLE('',#412,3.);
#158=CIRCLE('',#414,3.);
#159=CIRCLE('',#417,3.);
#160=CIRCLE('',#420,3.);
#161=VERTEX_POINT('',#535);
#162=VERTEX_POINT('',#537);
#163=VERTEX_POINT('',#541);
#164=VERTEX_POINT('',#543);
#165=VERTEX_POINT('',#547);
#166=VERTEX_POINT('',#549);
#167=VERTEX_POINT('',#553);
#168=VERTEX_POINT('',#555);
#169=VERTEX_POINT('',#559);
#170=VERTEX_POINT('',#561);
#171=VERTEX_POINT('',#565);
#172=VERTEX_POINT('',#567);
#173=VERTEX_POINT('',#571);
#174=VERTEX_POINT('',#573);
#175=VERTEX_POINT('',#577);
#176=VERTEX_POINT('',#579);
#177=VERTEX_POINT('',#583);
#178=VERTEX_POINT('',#584);
#179=VERTEX_POINT('',#586);
#180=VERTEX_POINT('',#588);
#181=VERTEX_POINT('',#592);
#182=VERTEX_POINT('',#594);
#183=VERTEX_POINT('',#598);
#184=VERTEX_POINT('',#600);
#185=VERTEX_POINT('',#602);
#186=VERTEX_POINT('',#604);
#187=VERTEX_POINT('',#606);
#188=VERTEX_POINT('',#610);
#189=VERTEX_POINT('',#614);
#190=VERTEX_POINT('',#618);
#191=VERTEX_POINT('',#622);
#192=VERTEX_POINT('',#626);
#193=EDGE_CURVE('',#161,#161,#137,.T.);
#194=EDGE_CURVE('',#161,#162,#89,.T.);
#195=EDGE_CURVE('',#162,#162,#138,.T.);
#196=EDGE_CURVE('',#163,#163,#139,.T.);
#197=EDGE_CURVE('',#163,#164,#90,.T.);
#198=EDGE_CURVE('',#164,#164,#140,.T.);
#199=EDGE_CURVE('',#165,#165,#141,.T.);
#200=EDGE_CURVE('',#165,#166,#91,.T.);
#201=EDGE_CURVE('',#166,#166,#142,.T.);
#202=EDGE_CURVE('',#167,#167,#143,.T.);
#203=EDGE_CURVE('',#167,#168,#92,.T.);
#204=EDGE_CURVE('',#168,#168,#144,.T.);
#205=EDGE_CURVE('',#169,#169,#145,.T.);
#206=EDGE_CURVE('',#169,#170,#93,.T.);
#207=EDGE_CURVE('',#170,#170,#146,.T.);
#208=EDGE_CURVE('',#171,#171,#147,.T.);
#209=EDGE_CURVE('',#171,#172,#94,.T.);
#210=EDGE_CURVE('',#172,#172,#148,.T.);
#211=EDGE_CURVE('',#173,#173,#149,.T.);
#212=EDGE_CURVE('',#173,#174,#95,.T.);
#213=EDGE_CURVE('',#174,#174,#150,.T.);
#214=EDGE_CURVE('',#175,#175,#151,.T.);
#215=EDGE_CURVE('',#175,#176,#96,.T.);
#216=EDGE_CURVE('',#176,#176,#152,.T.);
#217=EDGE_CURVE('',#177,#178,#153,.T.);
#218=EDGE_CURVE('',#178,#179,#97,.T.);
#219=EDGE_CURVE('',#179,#180,#154,.T.);
#220=EDGE_CURVE('',#180,#177,#98,.T.);
#221=EDGE_CURVE('',#180,#181,#99,.T.);
#222=EDGE_CURVE('',#182,#181,#100,.T.);
#223=EDGE_CURVE('',#177,#182,#101,.T.);
#224=EDGE_CURVE('',#183,#179,#102,.T.);
#225=EDGE_CURVE('',#184,#183,#155,.T.);
#226=EDGE_CURVE('',#185,#184,#103,.T.);
#227=EDGE_CURVE('',#186,#185,#156,.T.);
#228=EDGE_CURVE('',#187,#186,#104,.T.);
#229=EDGE_CURVE('',#181,#187,#157,.T.);
#230=EDGE_CURVE('',#188,#182,#158,.T.);
#231=EDGE_CURVE('',#187,#188,#105,.T.);
#232=EDGE_CURVE('',#189,#186,#106,.T.);
#233=EDGE_CURVE('',#188,#189,#107,.T.);
#234=EDGE_CURVE('',#190,#189,#159,.T.);
#235=EDGE_CURVE('',#185,#190,#108,.T.);
#236=EDGE_CURVE('',#191,#184,#109,.T.);
#237=EDGE_CURVE('',#190,#191,#110,.T.);
#238=EDGE_CURVE('',#192,#191,#160,.T.);
#239=EDGE_CURVE('',#183,#192,#111,.T.);
#240=EDGE_CURVE('',#192,#178,#112,.T.);
#241=ORIENTED_EDGE('',*,*,#193,.F.);
#242=ORIENTED_EDGE('',*,*,#194,.T.);
#243=ORIENTED_EDGE('',*,*,#195,.F.);
#244=ORIENTED_EDGE('',*,*,#194,.F.);
#245=ORIENTED_EDGE('',*,*,#196,.F.);
#246=ORIENTED_EDGE('',*,*,#197,.T.);
#247=ORIENTED_EDGE('',*,*,#198,.F.);
#248=ORIENTED_EDGE('',*,*,#197,.F.);
#249=ORIENTED_EDGE('',*,*,#199,.F.);
#250=ORIENTED_EDGE('',*,*,#200,.T.);
#251=ORIENTED_EDGE('',*,*,#201,.F.);
#252=ORIENTED_EDGE('',*,*,#200,.F.);
#253=ORIENTED_EDGE('',*,*,#202,.F.);
#254=ORIENTED_EDGE('',*,*,#203,.T.);
#255=ORIENTED_EDGE('',*,*,#204,.F.);
#256=ORIENTED_EDGE('',*,*,#203,.F.);
#257=ORIENTED_EDGE('',*,*,#205,.F.);
#258=ORIENTED_EDGE('',*,*,#206,.T.);
#259=ORIENTED_EDGE('',*,*,#207,.F.);
#260=ORIENTED_EDGE('',*,*,#206,.F.);
#261=ORIENTED_EDGE('',*,*,#208,.F.);
#262=ORIENTED_EDGE('',*,*,#209,.T.);
#263=ORIENTED_EDGE('',*,*,#210,.F.);
#264=ORIENTED_EDGE('',*,*,#209,.F.);
#265=ORIENTED_EDGE('',*,*,#211,.F.);
#266=ORIENTED_EDGE('',*,*,#212,.T.);
#267=ORIENTED_EDGE('',*,*,#213,.F.);
#268=ORIENTED_EDGE('',*,*,#212,.F.);
#269=ORIENTED_EDGE('',*,*,#214,.F.);
#270=ORIENTED_EDGE('',*,*,#215,.T.);
#271=ORIENTED_EDGE('',*,*,#216,.F.);
#272=ORIENTED_EDGE('',*,*,#215,.F.);
#273=ORIENTED_EDGE('',*,*,#217,.T.);
#274=ORIENTED_EDGE('',*,*,#218,.T.);
#275=ORIENTED_EDGE('',*,*,#219,.T.);
#276=ORIENTED_EDGE('',*,*,#220,.T.);
#277=ORIENTED_EDGE('',*,*,#220,.F.);
#278=ORIENTED_EDGE('',*,*,#221,.T.);
#279=ORIENTED_EDGE('',*,*,#222,.F.);
#280=ORIENTED_EDGE('',*,*,#223,.F.);
#281=ORIENTED_EDGE('',*,*,#219,.F.);
#282=ORIENTED_EDGE('',*,*,#224,.F.);
#283=ORIENTED_EDGE('',*,*,#225,.F.);
#284=ORIENTED_EDGE('',*,*,#226,.F.);
#285=ORIENTED_EDGE('',*,*,#227,.F.);
#286=ORIENTED_EDGE('',*,*,#228,.F.);
#287=ORIENTED_EDGE('',*,*,#229,.F.);
#288=ORIENTED_EDGE('',*,*,#221,.F.);
#289=ORIENTED_EDGE('',*,*,#195,.T.);
#290=ORIENTED_EDGE('',*,*,#198,.T.);
#291=ORIENTED_EDGE('',*,*,#201,.T.);
#292=ORIENTED_EDGE('',*,*,#204,.T.);
#293=ORIENTED_EDGE('',*,*,#207,.T.);
#294=ORIENTED_EDGE('',*,*,#210,.T.);
#295=ORIENTED_EDGE('',*,*,#213,.T.);
#296=ORIENTED_EDGE('',*,*,#216,.T.);
#297=ORIENTED_EDGE('',*,*,#230,.T.);
#298=ORIENTED_EDGE('',*,*,#222,.T.);
#299=ORIENTED_EDGE('',*,*,#229,.T.);
#300=ORIENTED_EDGE('',*,*,#231,.T.);
#301=ORIENTED_EDGE('',*,*,#231,.F.);
#302=ORIENTED_EDGE('',*,*,#228,.T.);
#303=ORIENTED_EDGE('',*,*,#232,.F.);
#304=ORIENTED_EDGE('',*,*,#233,.F.);
#305=ORIENTED_EDGE('',*,*,#234,.T.);
#306=ORIENTED_EDGE('',*,*,#232,.T.);
#307=ORIENTED_EDGE('',*,*,#227,.T.);
#308=ORIENTED_EDGE('',*,*,#235,.T.);
#309=ORIENTED_EDGE('',*,*,#235,.F.);
#310=ORIENTED_EDGE('',*,*,#226,.T.);
#311=ORIENTED_EDGE('',*,*,#236,.F.);
#312=ORIENTED_EDGE('',*,*,#237,.F.);
#313=ORIENTED_EDGE('',*,*,#238,.T.);
#314=ORIENTED_EDGE('',*,*,#236,.T.);
#315=ORIENTED_EDGE('',*,*,#225,.T.);
#316=ORIENTED_EDGE('',*,*,#239,.T.);
#317=ORIENTED_EDGE('',*,*,#218,.F.);
#318=ORIENTED_EDGE('',*,*,#240,.F.);
#319=ORIENTED_EDGE('',*,*,#239,.F.);
#320=ORIENTED_EDGE('',*,*,#224,.T.);
#321=ORIENTED_EDGE('',*,*,#217,.F.);
#322=ORIENTED_EDGE('',*,*,#223,.T.);
#323=ORIENTED_EDGE('',*,*,#230,.F.);
#324=ORIENTED_EDGE('',*,*,#233,.T.);
#325=ORIENTED_EDGE('',*,*,#234,.F.);
#326=ORIENTED_EDGE('',*,*,#237,.T.);
#327=ORIENTED_EDGE('',*,*,#238,.F.);
#328=ORIENTED_EDGE('',*,*,#240,.T.);
#329=ORIENTED_EDGE('',*,*,#193,.T.);
#330=ORIENTED_EDGE('',*,*,#196,.T.);
#331=ORIENTED_EDGE('',*,*,#199,.T.);
#332=ORIENTED_EDGE('',*,*,#202,.T.);
#333=ORIENTED_EDGE('',*,*,#205,.T.);
#334=ORIENTED_EDGE('',*,*,#208,.T.);
#335=ORIENTED_EDGE('',*,*,#211,.T.);
#336=ORIENTED_EDGE('',*,*,#214,.T.);
#337=CYLINDRICAL_SURFACE('',#381,0.8115);
#338=CYLINDRICAL_SURFACE('',#384,0.8115);
#339=CYLINDRICAL_SURFACE('',#387,0.8115);
#340=CYLINDRICAL_SURFACE('',#390,0.8115);
#341=CYLINDRICAL_SURFACE('',#393,1.632);
#342=CYLINDRICAL_SURFACE('',#396,1.632);
#343=CYLINDRICAL_SURFACE('',#399,1.632);
#344=CYLINDRICAL_SURFACE('',#402,1.632);
#345=CYLINDRICAL_SURFACE('',#405,3.);
#346=CYLINDRICAL_SURFACE('',#413,3.);
#347=CYLINDRICAL_SURFACE('',#416,3.);
#348=CYLINDRICAL_SURFACE('',#419,3.);
#349=ADVANCED_FACE('',(#37),#337,.F.);
#350=ADVANCED_FACE('',(#38),#338,.F.);
#351=ADVANCED_FACE('',(#39),#339,.F.);
#352=ADVANCED_FACE('',(#40),#340,.F.);
#353=ADVANCED_FACE('',(#41),#341,.F.);
#354=ADVANCED_FACE('',(#42),#342,.F.);
#355=ADVANCED_FACE('',(#43),#343,.F.);
#356=ADVANCED_FACE('',(#44),#344,.F.);
#357=ADVANCED_FACE('',(#45),#345,.T.);
#358=ADVANCED_FACE('',(#46),#31,.T.);
#359=ADVANCED_FACE('',(#47,#15,#16,#17,#18,#19,#20,#21,#22),#32,.F.);
#360=ADVANCED_FACE('',(#48),#346,.T.);
#361=ADVANCED_FACE('',(#49),#33,.T.);
#362=ADVANCED_FACE('',(#50),#347,.T.);
#363=ADVANCED_FACE('',(#51),#34,.T.);
#364=ADVANCED_FACE('',(#52),#348,.T.);
#365=ADVANCED_FACE('',(#53),#35,.T.);
#366=ADVANCED_FACE('',(#54,#23,#24,#25,#26,#27,#28,#29,#30),#36,.T.);
#367=CLOSED_SHELL('',(#349,#350,#351,#352,#353,#354,#355,#356,#357,#358,
#359,#360,#361,#362,#363,#364,#365,#366));
#368=DERIVED_UNIT_ELEMENT(#370,1.);
#369=DERIVED_UNIT_ELEMENT(#637,-3.);
#370=(
MASS_UNIT()
NAMED_UNIT(*)
SI_UNIT(.KILO.,.GRAM.)
);
#371=DERIVED_UNIT((#368,#369));
#372=MEASURE_REPRESENTATION_ITEM('density measure',
POSITIVE_RATIO_MEASURE(7850.),#371);
#373=PROPERTY_DEFINITION_REPRESENTATION(#378,#375);
#374=PROPERTY_DEFINITION_REPRESENTATION(#379,#376);
#375=REPRESENTATION('material name',(#377),#634);
#376=REPRESENTATION('density',(#372),#634);
#377=DESCRIPTIVE_REPRESENTATION_ITEM('Steel','Steel');
#378=PROPERTY_DEFINITION('material property','material name',#644);
#379=PROPERTY_DEFINITION('material property','density of part',#644);
#380=AXIS2_PLACEMENT_3D('',#533,#423,#424);
#381=AXIS2_PLACEMENT_3D('',#534,#425,#426);
#382=AXIS2_PLACEMENT_3D('',#536,#427,#428);
#383=AXIS2_PLACEMENT_3D('',#539,#430,#431);
#384=AXIS2_PLACEMENT_3D('',#540,#432,#433);
#385=AXIS2_PLACEMENT_3D('',#542,#434,#435);
#386=AXIS2_PLACEMENT_3D('',#545,#437,#438);
#387=AXIS2_PLACEMENT_3D('',#546,#439,#440);
#388=AXIS2_PLACEMENT_3D('',#548,#441,#442);
#389=AXIS2_PLACEMENT_3D('',#551,#444,#445);
#390=AXIS2_PLACEMENT_3D('',#552,#446,#447);
#391=AXIS2_PLACEMENT_3D('',#554,#448,#449);
#392=AXIS2_PLACEMENT_3D('',#557,#451,#452);
#393=AXIS2_PLACEMENT_3D('',#558,#453,#454);
#394=AXIS2_PLACEMENT_3D('',#560,#455,#456);
#395=AXIS2_PLACEMENT_3D('',#563,#458,#459);
#396=AXIS2_PLACEMENT_3D('',#564,#460,#461);
#397=AXIS2_PLACEMENT_3D('',#566,#462,#463);
#398=AXIS2_PLACEMENT_3D('',#569,#465,#466);
#399=AXIS2_PLACEMENT_3D('',#570,#467,#468);
#400=AXIS2_PLACEMENT_3D('',#572,#469,#470);
#401=AXIS2_PLACEMENT_3D('',#575,#472,#473);
#402=AXIS2_PLACEMENT_3D('',#576,#474,#475);
#403=AXIS2_PLACEMENT_3D('',#578,#476,#477);
#404=AXIS2_PLACEMENT_3D('',#581,#479,#480);
#405=AXIS2_PLACEMENT_3D('',#582,#481,#482);
#406=AXIS2_PLACEMENT_3D('',#585,#483,#484);
#407=AXIS2_PLACEMENT_3D('',#589,#486,#487);
#408=AXIS2_PLACEMENT_3D('',#591,#489,#490);
#409=AXIS2_PLACEMENT_3D('',#597,#494,#495);
#410=AXIS2_PLACEMENT_3D('',#601,#497,#498);
#411=AXIS2_PLACEMENT_3D('',#605,#500,#501);
#412=AXIS2_PLACEMENT_3D('',#608,#503,#504);
#413=AXIS2_PLACEMENT_3D('',#609,#505,#506);
#414=AXIS2_PLACEMENT_3D('',#611,#507,#508);
#415=AXIS2_PLACEMENT_3D('',#613,#510,#511);
#416=AXIS2_PLACEMENT_3D('',#617,#514,#515);
#417=AXIS2_PLACEMENT_3D('',#619,#516,#517);
#418=AXIS2_PLACEMENT_3D('',#621,#519,#520);
#419=AXIS2_PLACEMENT_3D('',#625,#523,#524);
#420=AXIS2_PLACEMENT_3D('',#627,#525,#526);
#421=AXIS2_PLACEMENT_3D('',#629,#528,#529);
#422=AXIS2_PLACEMENT_3D('',#631,#531,#532);
#423=DIRECTION('axis',(0.,0.,1.));
#424=DIRECTION('refdir',(1.,0.,0.));
#425=DIRECTION('center_axis',(0.,0.,-1.));
#426=DIRECTION('ref_axis',(1.,0.,0.));
#427=DIRECTION('center_axis',(0.,0.,-1.));
#428=DIRECTION('ref_axis',(1.,0.,0.));
#429=DIRECTION('',(0.,0.,-1.));
#430=DIRECTION('center_axis',(0.,0.,1.));
#431=DIRECTION('ref_axis',(1.,0.,0.));
#432=DIRECTION('center_axis',(0.,0.,-1.));
#433=DIRECTION('ref_axis',(1.,0.,0.));
#434=DIRECTION('center_axis',(0.,0.,-1.));
#435=DIRECTION('ref_axis',(1.,0.,0.));
#436=DIRECTION('',(0.,0.,-1.));
#437=DIRECTION('center_axis',(0.,0.,1.));
#438=DIRECTION('ref_axis',(1.,0.,0.));
#439=DIRECTION('center_axis',(0.,0.,-1.));
#440=DIRECTION('ref_axis',(1.,0.,0.));
#441=DIRECTION('center_axis',(0.,0.,-1.));
#442=DIRECTION('ref_axis',(1.,0.,0.));
#443=DIRECTION('',(0.,0.,-1.));
#444=DIRECTION('center_axis',(0.,0.,1.));
#445=DIRECTION('ref_axis',(1.,0.,0.));
#446=DIRECTION('center_axis',(0.,0.,-1.));
#447=DIRECTION('ref_axis',(1.,0.,0.));
#448=DIRECTION('center_axis',(0.,0.,-1.));
#449=DIRECTION('ref_axis',(1.,0.,0.));
#450=DIRECTION('',(0.,0.,-1.));
#451=DIRECTION('center_axis',(0.,0.,1.));
#452=DIRECTION('ref_axis',(1.,0.,0.));
#453=DIRECTION('center_axis',(0.,0.,-1.));
#454=DIRECTION('ref_axis',(1.,0.,0.));
#455=DIRECTION('center_axis',(0.,0.,-1.));
#456=DIRECTION('ref_axis',(1.,0.,0.));
#457=DIRECTION('',(0.,0.,-1.));
#458=DIRECTION('center_axis',(0.,0.,1.));
#459=DIRECTION('ref_axis',(1.,0.,0.));
#460=DIRECTION('center_axis',(0.,0.,-1.));
#461=DIRECTION('ref_axis',(1.,0.,0.));
#462=DIRECTION('center_axis',(0.,0.,-1.));
#463=DIRECTION('ref_axis',(1.,0.,0.));
#464=DIRECTION('',(0.,0.,-1.));
#465=DIRECTION('center_axis',(0.,0.,1.));
#466=DIRECTION('ref_axis',(1.,0.,0.));
#467=DIRECTION('center_axis',(0.,0.,-1.));
#468=DIRECTION('ref_axis',(1.,0.,0.));
#469=DIRECTION('center_axis',(0.,0.,-1.));
#470=DIRECTION('ref_axis',(1.,0.,0.));
#471=DIRECTION('',(0.,0.,-1.));
#472=DIRECTION('center_axis',(0.,0.,1.));
#473=DIRECTION('ref_axis',(1.,0.,0.));
#474=DIRECTION('center_axis',(0.,0.,-1.));
#475=DIRECTION('ref_axis',(1.,0.,0.));
#476=DIRECTION('center_axis',(0.,0.,-1.));
#477=DIRECTION('ref_axis',(1.,0.,0.));
#478=DIRECTION('',(0.,0.,-1.));
#479=DIRECTION('center_axis',(0.,0.,1.));
#480=DIRECTION('ref_axis',(1.,0.,0.));
#481=DIRECTION('center_axis',(0.,0.,1.));
#482=DIRECTION('ref_axis',(-0.707106781186548,0.707106781186547,0.));
#483=DIRECTION('center_axis',(0.,0.,-1.));
#484=DIRECTION('ref_axis',(-0.707106781186548,0.707106781186547,0.));
#485=DIRECTION('',(0.,0.,-1.));
#486=DIRECTION('center_axis',(0.,0.,1.));
#487=DIRECTION('ref_axis',(-0.707106781186548,0.707106781186547,0.));
#488=DIRECTION('',(0.,0.,1.));
#489=DIRECTION('center_axis',(-1.,1.46569761551948E-16,0.));
#490=DIRECTION('ref_axis',(-1.46569761551948E-16,-1.,0.));
#491=DIRECTION('',(-1.46569761551948E-16,-1.,0.));
#492=DIRECTION('',(0.,0.,-1.));
#493=DIRECTION('',(-1.46569761551948E-16,-1.,0.));
#494=DIRECTION('center_axis',(0.,0.,1.));
#495=DIRECTION('ref_axis',(1.,0.,0.));
#496=DIRECTION('',(-1.,2.22044604925031E-16,0.));
#497=DIRECTION('center_axis',(0.,0.,1.));
#498=DIRECTION('ref_axis',(0.707106781186547,0.707106781186547,0.));
#499=DIRECTION('',(0.,1.,0.));
#500=DIRECTION('center_axis',(0.,0.,1.));
#501=DIRECTION('ref_axis',(0.707106781186547,-0.707106781186548,0.));
#502=DIRECTION('',(1.,0.,0.));
#503=DIRECTION('center_axis',(0.,0.,1.));
#504=DIRECTION('ref_axis',(-0.707106781186548,-0.707106781186547,0.));
#505=DIRECTION('center_axis',(0.,0.,1.));
#506=DIRECTION('ref_axis',(-0.707106781186548,-0.707106781186547,0.));
#507=DIRECTION('center_axis',(0.,0.,-1.));
#508=DIRECTION('ref_axis',(-0.707106781186548,-0.707106781186547,0.));
#509=DIRECTION('',(0.,0.,1.));
#510=DIRECTION('center_axis',(0.,-1.,0.));
#511=DIRECTION('ref_axis',(1.,0.,0.));
#512=DIRECTION('',(0.,0.,-1.));
#513=DIRECTION('',(1.,0.,0.));
#514=DIRECTION('center_axis',(0.,0.,1.));
#515=DIRECTION('ref_axis',(0.707106781186547,-0.707106781186548,0.));
#516=DIRECTION('center_axis',(0.,0.,-1.));
#517=DIRECTION('ref_axis',(0.707106781186547,-0.707106781186548,0.));
#518=DIRECTION('',(0.,0.,1.));
#519=DIRECTION('center_axis',(1.,0.,0.));
#520=DIRECTION('ref_axis',(0.,1.,0.));
#521=DIRECTION('',(0.,0.,-1.));
#522=DIRECTION('',(0.,1.,0.));
#523=DIRECTION('center_axis',(0.,0.,1.));
#524=DIRECTION('ref_axis',(0.707106781186547,0.707106781186547,0.));
#525=DIRECTION('center_axis',(0.,0.,-1.));
#526=DIRECTION('ref_axis',(0.707106781186547,0.707106781186547,0.));
#527=DIRECTION('',(0.,0.,1.));
#528=DIRECTION('center_axis',(2.22044604925031E-16,1.,0.));
#529=DIRECTION('ref_axis',(-1.,2.22044604925031E-16,0.));
#530=DIRECTION('',(-1.,2.22044604925031E-16,0.));
#531=DIRECTION('center_axis',(0.,0.,1.));
#532=DIRECTION('ref_axis',(1.,0.,0.));
#533=CARTESIAN_POINT('',(0.,0.,0.));
#534=CARTESIAN_POINT('Origin',(12.,7.5,1.125));
#535=CARTESIAN_POINT('',(11.1885,7.5,2.5));
#536=CARTESIAN_POINT('Origin',(12.,7.5,2.5));
#537=CARTESIAN_POINT('',(11.1885,7.5,0.));
#538=CARTESIAN_POINT('',(11.1885,7.5,1.125));
#539=CARTESIAN_POINT('Origin',(12.,7.5,0.));
#540=CARTESIAN_POINT('Origin',(12.,32.5,1.125));
#541=CARTESIAN_POINT('',(11.1885,32.5,2.5));
#542=CARTESIAN_POINT('Origin',(12.,32.5,2.5));
#543=CARTESIAN_POINT('',(11.1885,32.5,0.));
#544=CARTESIAN_POINT('',(11.1885,32.5,1.125));
#545=CARTESIAN_POINT('Origin',(12.,32.5,0.));
#546=CARTESIAN_POINT('Origin',(28.,32.5,1.125));
#547=CARTESIAN_POINT('',(27.1885,32.5,2.5));
#548=CARTESIAN_POINT('Origin',(28.,32.5,2.5));
#549=CARTESIAN_POINT('',(27.1885,32.5,0.));
#550=CARTESIAN_POINT('',(27.1885,32.5,1.125));
#551=CARTESIAN_POINT('Origin',(28.,32.5,0.));
#552=CARTESIAN_POINT('Origin',(28.,7.5,1.125));
#553=CARTESIAN_POINT('',(27.1885,7.5,2.5));
#554=CARTESIAN_POINT('Origin',(28.,7.5,2.5));
#555=CARTESIAN_POINT('',(27.1885,7.5,0.));
#556=CARTESIAN_POINT('',(27.1885,7.5,1.125));
#557=CARTESIAN_POINT('Origin',(28.,7.5,0.));
#558=CARTESIAN_POINT('Origin',(5.00000000000001,5.00000000000001,1.125));
#559=CARTESIAN_POINT('',(3.36800000000001,5.00000000000001,2.5));
#560=CARTESIAN_POINT('Origin',(5.00000000000001,5.00000000000001,2.5));
#561=CARTESIAN_POINT('',(3.36800000000001,5.00000000000001,0.));
#562=CARTESIAN_POINT('',(3.36800000000001,5.00000000000001,1.125));
#563=CARTESIAN_POINT('Origin',(5.00000000000001,5.00000000000001,0.));
#564=CARTESIAN_POINT('Origin',(35.,35.,1.125));
#565=CARTESIAN_POINT('',(33.368,35.,2.5));
#566=CARTESIAN_POINT('Origin',(35.,35.,2.5));
#567=CARTESIAN_POINT('',(33.368,35.,0.));
#568=CARTESIAN_POINT('',(33.368,35.,1.125));
#569=CARTESIAN_POINT('Origin',(35.,35.,0.));
#570=CARTESIAN_POINT('Origin',(5.00000000000001,35.,1.125));
#571=CARTESIAN_POINT('',(3.36800000000001,35.,2.5));
#572=CARTESIAN_POINT('Origin',(5.00000000000001,35.,2.5));
#573=CARTESIAN_POINT('',(3.36800000000001,35.,0.));
#574=CARTESIAN_POINT('',(3.36800000000001,35.,1.125));
#575=CARTESIAN_POINT('Origin',(5.00000000000001,35.,0.));
#576=CARTESIAN_POINT('Origin',(35.,5.00000000000001,1.125));
#577=CARTESIAN_POINT('',(33.368,5.00000000000001,2.5));
#578=CARTESIAN_POINT('Origin',(35.,5.00000000000001,2.5));
#579=CARTESIAN_POINT('',(33.368,5.00000000000001,0.));
#580=CARTESIAN_POINT('',(33.368,5.00000000000001,1.125));
#581=CARTESIAN_POINT('Origin',(35.,5.00000000000001,0.));
#582=CARTESIAN_POINT('Origin',(3.00000000000001,37.,0.));
#583=CARTESIAN_POINT('',(5.42308117742209E-15,37.,2.5));
#584=CARTESIAN_POINT('',(3.00000000000001,40.,2.5));
#585=CARTESIAN_POINT('Origin',(3.00000000000001,37.,2.5));
#586=CARTESIAN_POINT('',(3.00000000000001,40.,0.));
#587=CARTESIAN_POINT('',(3.00000000000001,40.,0.));
#588=CARTESIAN_POINT('',(5.42308117742209E-15,37.,0.));
#589=CARTESIAN_POINT('Origin',(3.00000000000001,37.,0.));
#590=CARTESIAN_POINT('',(5.55111512312578E-15,37.,0.));
#591=CARTESIAN_POINT('Origin',(5.86279046207793E-15,40.,0.));
#592=CARTESIAN_POINT('',(4.39709284655845E-16,3.,0.));
#593=CARTESIAN_POINT('',(5.86279046207793E-15,40.,0.));
#594=CARTESIAN_POINT('',(4.39709284655845E-16,3.,2.5));
#595=CARTESIAN_POINT('',(5.55111512312578E-16,3.,0.));
#596=CARTESIAN_POINT('',(5.86279046207793E-15,40.,2.5));
#597=CARTESIAN_POINT('Origin',(20.,20.,0.));
#598=CARTESIAN_POINT('',(37.,40.,0.));
#599=CARTESIAN_POINT('',(40.,40.,0.));
#600=CARTESIAN_POINT('',(40.,37.,0.));
#601=CARTESIAN_POINT('Origin',(37.,37.,0.));
#602=CARTESIAN_POINT('',(40.,3.,0.));
#603=CARTESIAN_POINT('',(40.,0.,0.));
#604=CARTESIAN_POINT('',(37.,0.,0.));
#605=CARTESIAN_POINT('Origin',(37.,3.,0.));
#606=CARTESIAN_POINT('',(3.,0.,0.));
#607=CARTESIAN_POINT('',(0.,0.,0.));
#608=CARTESIAN_POINT('Origin',(3.,3.,0.));
#609=CARTESIAN_POINT('Origin',(3.,3.,0.));
#610=CARTESIAN_POINT('',(3.,0.,2.5));
#611=CARTESIAN_POINT('Origin',(3.,3.,2.5));
#612=CARTESIAN_POINT('',(3.,0.,0.));
#613=CARTESIAN_POINT('Origin',(0.,0.,0.));
#614=CARTESIAN_POINT('',(37.,0.,2.5));
#615=CARTESIAN_POINT('',(37.,0.,0.));
#616=CARTESIAN_POINT('',(0.,0.,2.5));
#617=CARTESIAN_POINT('Origin',(37.,3.,0.));
#618=CARTESIAN_POINT('',(40.,3.,2.5));
#619=CARTESIAN_POINT('Origin',(37.,3.,2.5));
#620=CARTESIAN_POINT('',(40.,3.,0.));
#621=CARTESIAN_POINT('Origin',(40.,0.,0.));
#622=CARTESIAN_POINT('',(40.,37.,2.5));
#623=CARTESIAN_POINT('',(40.,37.,0.));
#624=CARTESIAN_POINT('',(40.,0.,2.5));
#625=CARTESIAN_POINT('Origin',(37.,37.,0.));
#626=CARTESIAN_POINT('',(37.,40.,2.5));
#627=CARTESIAN_POINT('Origin',(37.,37.,2.5));
#628=CARTESIAN_POINT('',(37.,40.,0.));
#629=CARTESIAN_POINT('Origin',(40.,40.,0.));
#630=CARTESIAN_POINT('',(40.,40.,2.5));
#631=CARTESIAN_POINT('Origin',(20.,20.,2.5));
#632=UNCERTAINTY_MEASURE_WITH_UNIT(LENGTH_MEASURE(0.01),#636,
'DISTANCE_ACCURACY_VALUE',
'Maximum model space distance between geometric entities at asserted c
onnectivities');
#633=UNCERTAINTY_MEASURE_WITH_UNIT(LENGTH_MEASURE(0.01),#636,
'DISTANCE_ACCURACY_VALUE',
'Maximum model space distance between geometric entities at asserted c
onnectivities');
#634=(
GEOMETRIC_REPRESENTATION_CONTEXT(3)
GLOBAL_UNCERTAINTY_ASSIGNED_CONTEXT((#632))
GLOBAL_UNIT_ASSIGNED_CONTEXT((#636,#638,#639))
REPRESENTATION_CONTEXT('','3D')
);
#635=(
GEOMETRIC_REPRESENTATION_CONTEXT(3)
GLOBAL_UNCERTAINTY_ASSIGNED_CONTEXT((#633))
GLOBAL_UNIT_ASSIGNED_CONTEXT((#636,#638,#639))
REPRESENTATION_CONTEXT('','3D')
);
#636=(
LENGTH_UNIT()
NAMED_UNIT(*)
SI_UNIT(.MILLI.,.METRE.)
);
#637=(
LENGTH_UNIT()
NAMED_UNIT(*)
SI_UNIT($,.METRE.)
);
#638=(
NAMED_UNIT(*)
PLANE_ANGLE_UNIT()
SI_UNIT($,.RADIAN.)
);
#639=(
NAMED_UNIT(*)
SI_UNIT($,.STERADIAN.)
SOLID_ANGLE_UNIT()
);
#640=SHAPE_DEFINITION_REPRESENTATION(#641,#642);
#641=PRODUCT_DEFINITION_SHAPE('',$,#644);
#642=SHAPE_REPRESENTATION('',(#380),#634);
#643=PRODUCT_DEFINITION_CONTEXT('part definition',#648,'design');
#644=PRODUCT_DEFINITION('Heatsink','Heatsink v12',#645,#643);
#645=PRODUCT_DEFINITION_FORMATION('',$,#650);
#646=PRODUCT_RELATED_PRODUCT_CATEGORY('Heatsink v12','Heatsink v12',(#650));
#647=APPLICATION_PROTOCOL_DEFINITION('international standard',
'automotive_design',2009,#648);
#648=APPLICATION_CONTEXT(
'Core Data for Automotive Mechanical Design Process');
#649=PRODUCT_CONTEXT('part definition',#648,'mechanical');
#650=PRODUCT('Heatsink','Heatsink v12',$,(#649));
#651=PRESENTATION_STYLE_ASSIGNMENT((#653));
#652=PRESENTATION_STYLE_ASSIGNMENT((#654));
#653=SURFACE_STYLE_USAGE(.BOTH.,#655);
#654=SURFACE_STYLE_USAGE(.BOTH.,#656);
#655=SURFACE_SIDE_STYLE('',(#657));
#656=SURFACE_SIDE_STYLE('',(#658));
#657=SURFACE_STYLE_FILL_AREA(#659);
#658=SURFACE_STYLE_FILL_AREA(#660);
#659=FILL_AREA_STYLE('Steel - Satin',(#661));
#660=FILL_AREA_STYLE('Aluminum - Satin',(#662));
#661=FILL_AREA_STYLE_COLOUR('Steel - Satin',#663);
#662=FILL_AREA_STYLE_COLOUR('Aluminum - Satin',#664);
#663=COLOUR_RGB('Steel - Satin',0.627450980392157,0.627450980392157,0.627450980392157);
#664=COLOUR_RGB('Aluminum - Satin',0.96078431372549,0.96078431372549,0.964705882352941);
ENDSEC;
END-ISO-10303-21;
