ISO-10303-21;
HEADER;
/* Generated by software containing ST-Developer
 * from STEP Tools, Inc. (www.steptools.com) 
 */

FILE_DESCRIPTION(
/* description */ (''),
/* implementation_level */ '2;1');

FILE_NAME(
/* name */ 'Laser_Mount.step',
/* time_stamp */ '2025-05-04T22:35:51-07:00',
/* author */ (''),
/* organization */ (''),
/* preprocessor_version */ 'ST-DEVELOPER v20.1',
/* originating_system */ 'Autodesk Translation Framework v14.4.0.0',
/* authorisation */ '');

FILE_SCHEMA (('AUTOMOTIVE_DESIGN { 1 0 10303 214 3 1 1 }'));
ENDSEC;

DATA;
#10=MECHANICAL_DESIGN_GEOMETRIC_PRESENTATION_REPRESENTATION('',(#13),#969);
#11=SHAPE_REPRESENTATION_RELATIONSHIP('SRR','None',#976,#12);
#12=ADVANCED_BREP_SHAPE_REPRESENTATION('',(#14),#968);
#13=STYLED_ITEM('',(#985),#14);
#14=MANIFOLD_SOLID_BREP('Body1',#557);
#15=FACE_BOUND('',#68,.T.);
#16=FACE_BOUND('',#69,.T.);
#17=FACE_BOUND('',#70,.T.);
#18=FACE_BOUND('',#71,.T.);
#19=FACE_BOUND('',#72,.T.);
#20=FACE_BOUND('',#73,.T.);
#21=FACE_BOUND('',#99,.T.);
#22=FACE_BOUND('',#100,.T.);
#23=FACE_BOUND('',#101,.T.);
#24=FACE_BOUND('',#102,.T.);
#25=FACE_BOUND('',#103,.T.);
#26=FACE_BOUND('',#104,.T.);
#27=PLANE('',#577);
#28=PLANE('',#596);
#29=PLANE('',#599);
#30=PLANE('',#602);
#31=PLANE('',#605);
#32=PLANE('',#608);
#33=PLANE('',#611);
#34=PLANE('',#624);
#35=PLANE('',#629);
#36=PLANE('',#634);
#37=FACE_OUTER_BOUND('',#65,.T.);
#38=FACE_OUTER_BOUND('',#66,.T.);
#39=FACE_OUTER_BOUND('',#67,.T.);
#40=FACE_OUTER_BOUND('',#74,.T.);
#41=FACE_OUTER_BOUND('',#75,.T.);
#42=FACE_OUTER_BOUND('',#76,.T.);
#43=FACE_OUTER_BOUND('',#77,.T.);
#44=FACE_OUTER_BOUND('',#78,.T.);
#45=FACE_OUTER_BOUND('',#79,.T.);
#46=FACE_OUTER_BOUND('',#80,.T.);
#47=FACE_OUTER_BOUND('',#81,.T.);
#48=FACE_OUTER_BOUND('',#82,.T.);
#49=FACE_OUTER_BOUND('',#83,.T.);
#50=FACE_OUTER_BOUND('',#84,.T.);
#51=FACE_OUTER_BOUND('',#85,.T.);
#52=FACE_OUTER_BOUND('',#86,.T.);
#53=FACE_OUTER_BOUND('',#87,.T.);
#54=FACE_OUTER_BOUND('',#88,.T.);
#55=FACE_OUTER_BOUND('',#89,.T.);
#56=FACE_OUTER_BOUND('',#90,.T.);
#57=FACE_OUTER_BOUND('',#91,.T.);
#58=FACE_OUTER_BOUND('',#92,.T.);
#59=FACE_OUTER_BOUND('',#93,.T.);
#60=FACE_OUTER_BOUND('',#94,.T.);
#61=FACE_OUTER_BOUND('',#95,.T.);
#62=FACE_OUTER_BOUND('',#96,.T.);
#63=FACE_OUTER_BOUND('',#97,.T.);
#64=FACE_OUTER_BOUND('',#98,.T.);
#65=EDGE_LOOP('',(#355,#356,#357,#358));
#66=EDGE_LOOP('',(#359,#360,#361,#362));
#67=EDGE_LOOP('',(#363,#364,#365,#366,#367,#368,#369,#370,#371,#372,#373,
#374,#375,#376,#377,#378,#379,#380,#381,#382));
#68=EDGE_LOOP('',(#383));
#69=EDGE_LOOP('',(#384));
#70=EDGE_LOOP('',(#385));
#71=EDGE_LOOP('',(#386));
#72=EDGE_LOOP('',(#387));
#73=EDGE_LOOP('',(#388));
#74=EDGE_LOOP('',(#389,#390,#391,#392));
#75=EDGE_LOOP('',(#393,#394,#395,#396));
#76=EDGE_LOOP('',(#397,#398,#399,#400));
#77=EDGE_LOOP('',(#401,#402,#403,#404));
#78=EDGE_LOOP('',(#405,#406,#407,#408));
#79=EDGE_LOOP('',(#409,#410,#411,#412));
#80=EDGE_LOOP('',(#413,#414,#415,#416));
#81=EDGE_LOOP('',(#417,#418,#419,#420));
#82=EDGE_LOOP('',(#421,#422,#423,#424));
#83=EDGE_LOOP('',(#425,#426,#427,#428));
#84=EDGE_LOOP('',(#429,#430,#431,#432));
#85=EDGE_LOOP('',(#433,#434,#435,#436));
#86=EDGE_LOOP('',(#437,#438,#439,#440));
#87=EDGE_LOOP('',(#441,#442,#443,#444));
#88=EDGE_LOOP('',(#445,#446,#447,#448));
#89=EDGE_LOOP('',(#449,#450,#451,#452));
#90=EDGE_LOOP('',(#453,#454,#455,#456));
#91=EDGE_LOOP('',(#457,#458,#459,#460));
#92=EDGE_LOOP('',(#461,#462,#463,#464));
#93=EDGE_LOOP('',(#465,#466,#467,#468));
#94=EDGE_LOOP('',(#469,#470,#471,#472));
#95=EDGE_LOOP('',(#473,#474,#475,#476));
#96=EDGE_LOOP('',(#477,#478,#479,#480));
#97=EDGE_LOOP('',(#481,#482,#483,#484));
#98=EDGE_LOOP('',(#485,#486,#487,#488,#489,#490,#491,#492,#493,#494,#495,
#496,#497,#498,#499,#500,#501,#502,#503,#504));
#99=EDGE_LOOP('',(#505));
#100=EDGE_LOOP('',(#506));
#101=EDGE_LOOP('',(#507));
#102=EDGE_LOOP('',(#508));
#103=EDGE_LOOP('',(#509));
#104=EDGE_LOOP('',(#510));
#105=LINE('',#813,#147);
#106=LINE('',#816,#148);
#107=LINE('',#821,#149);
#108=LINE('',#825,#150);
#109=LINE('',#831,#151);
#110=LINE('',#835,#152);
#111=LINE('',#839,#153);
#112=LINE('',#845,#154);
#113=LINE('',#851,#155);
#114=LINE('',#855,#156);
#115=LINE('',#858,#157);
#116=LINE('',#873,#158);
#117=LINE('',#876,#159);
#118=LINE('',#879,#160);
#119=LINE('',#880,#161);
#120=LINE('',#884,#162);
#121=LINE('',#887,#163);
#122=LINE('',#888,#164);
#123=LINE('',#893,#165);
#124=LINE('',#894,#166);
#125=LINE('',#897,#167);
#126=LINE('',#898,#168);
#127=LINE('',#903,#169);
#128=LINE('',#904,#170);
#129=LINE('',#907,#171);
#130=LINE('',#908,#172);
#131=LINE('',#913,#173);
#132=LINE('',#914,#174);
#133=LINE('',#916,#175);
#134=LINE('',#919,#176);
#135=LINE('',#922,#177);
#136=LINE('',#924,#178);
#137=LINE('',#928,#179);
#138=LINE('',#931,#180);
#139=LINE('',#935,#181);
#140=LINE('',#939,#182);
#141=LINE('',#943,#183);
#142=LINE('',#947,#184);
#143=LINE('',#950,#185);
#144=LINE('',#956,#186);
#145=LINE('',#959,#187);
#146=LINE('',#963,#188);
#147=VECTOR('',#641,10.);
#148=VECTOR('',#644,10.);
#149=VECTOR('',#649,10.);
#150=VECTOR('',#654,10.);
#151=VECTOR('',#659,10.);
#152=VECTOR('',#662,10.);
#153=VECTOR('',#665,10.);
#154=VECTOR('',#670,10.);
#155=VECTOR('',#675,10.);
#156=VECTOR('',#678,10.);
#157=VECTOR('',#681,10.);
#158=VECTOR('',#696,10.);
#159=VECTOR('',#699,10.);
#160=VECTOR('',#702,10.);
#161=VECTOR('',#703,10.);
#162=VECTOR('',#708,10.);
#163=VECTOR('',#711,10.);
#164=VECTOR('',#712,10.);
#165=VECTOR('',#717,10.);
#166=VECTOR('',#718,10.);
#167=VECTOR('',#721,10.);
#168=VECTOR('',#722,10.);
#169=VECTOR('',#727,10.);
#170=VECTOR('',#728,10.);
#171=VECTOR('',#731,10.);
#172=VECTOR('',#732,10.);
#173=VECTOR('',#737,10.);
#174=VECTOR('',#738,10.);
#175=VECTOR('',#741,10.);
#176=VECTOR('',#744,10.);
#177=VECTOR('',#747,10.);
#178=VECTOR('',#750,10.);
#179=VECTOR('',#755,10.);
#180=VECTOR('',#758,1.2);
#181=VECTOR('',#763,1.2);
#182=VECTOR('',#768,1.2);
#183=VECTOR('',#773,1.2);
#184=VECTOR('',#778,10.);
#185=VECTOR('',#783,10.);
#186=VECTOR('',#794,10.);
#187=VECTOR('',#797,1.038);
#188=VECTOR('',#802,1.038);
#189=CIRCLE('',#572,2.);
#190=CIRCLE('',#573,2.);
#191=CIRCLE('',#575,3.5);
#192=CIRCLE('',#576,3.5);
#193=CIRCLE('',#578,2.);
#194=CIRCLE('',#579,3.5);
#195=CIRCLE('',#580,2.);
#196=CIRCLE('',#581,2.);
#197=CIRCLE('',#582,3.5);
#198=CIRCLE('',#583,2.);
#199=CIRCLE('',#584,2.);
#200=CIRCLE('',#585,3.5);
#201=CIRCLE('',#586,2.);
#202=CIRCLE('',#587,2.);
#203=CIRCLE('',#588,1.2);
#204=CIRCLE('',#589,1.2);
#205=CIRCLE('',#590,1.2);
#206=CIRCLE('',#591,1.2);
#207=CIRCLE('',#592,1.03775);
#208=CIRCLE('',#593,1.03775);
#209=CIRCLE('',#595,2.);
#210=CIRCLE('',#598,2.);
#211=CIRCLE('',#601,2.);
#212=CIRCLE('',#604,2.);
#213=CIRCLE('',#607,2.);
#214=CIRCLE('',#610,2.);
#215=CIRCLE('',#613,2.);
#216=CIRCLE('',#615,1.2);
#217=CIRCLE('',#617,1.2);
#218=CIRCLE('',#619,1.2);
#219=CIRCLE('',#621,1.2);
#220=CIRCLE('',#623,3.5);
#221=CIRCLE('',#626,3.5);
#222=CIRCLE('',#628,3.5);
#223=CIRCLE('',#631,1.03775);
#224=CIRCLE('',#633,1.03775);
#225=VERTEX_POINT('',#809);
#226=VERTEX_POINT('',#810);
#227=VERTEX_POINT('',#812);
#228=VERTEX_POINT('',#814);
#229=VERTEX_POINT('',#818);
#230=VERTEX_POINT('',#820);
#231=VERTEX_POINT('',#824);
#232=VERTEX_POINT('',#826);
#233=VERTEX_POINT('',#828);
#234=VERTEX_POINT('',#830);
#235=VERTEX_POINT('',#832);
#236=VERTEX_POINT('',#834);
#237=VERTEX_POINT('',#836);
#238=VERTEX_POINT('',#838);
#239=VERTEX_POINT('',#840);
#240=VERTEX_POINT('',#842);
#241=VERTEX_POINT('',#844);
#242=VERTEX_POINT('',#846);
#243=VERTEX_POINT('',#848);
#244=VERTEX_POINT('',#850);
#245=VERTEX_POINT('',#852);
#246=VERTEX_POINT('',#854);
#247=VERTEX_POINT('',#856);
#248=VERTEX_POINT('',#859);
#249=VERTEX_POINT('',#861);
#250=VERTEX_POINT('',#863);
#251=VERTEX_POINT('',#865);
#252=VERTEX_POINT('',#867);
#253=VERTEX_POINT('',#869);
#254=VERTEX_POINT('',#872);
#255=VERTEX_POINT('',#874);
#256=VERTEX_POINT('',#878);
#257=VERTEX_POINT('',#882);
#258=VERTEX_POINT('',#886);
#259=VERTEX_POINT('',#890);
#260=VERTEX_POINT('',#891);
#261=VERTEX_POINT('',#896);
#262=VERTEX_POINT('',#900);
#263=VERTEX_POINT('',#901);
#264=VERTEX_POINT('',#906);
#265=VERTEX_POINT('',#910);
#266=VERTEX_POINT('',#911);
#267=VERTEX_POINT('',#918);
#268=VERTEX_POINT('',#920);
#269=VERTEX_POINT('',#926);
#270=VERTEX_POINT('',#930);
#271=VERTEX_POINT('',#934);
#272=VERTEX_POINT('',#938);
#273=VERTEX_POINT('',#942);
#274=VERTEX_POINT('',#946);
#275=VERTEX_POINT('',#958);
#276=VERTEX_POINT('',#962);
#277=EDGE_CURVE('',#225,#226,#189,.T.);
#278=EDGE_CURVE('',#226,#227,#105,.T.);
#279=EDGE_CURVE('',#227,#228,#190,.T.);
#280=EDGE_CURVE('',#228,#225,#106,.T.);
#281=EDGE_CURVE('',#229,#228,#191,.T.);
#282=EDGE_CURVE('',#229,#230,#107,.T.);
#283=EDGE_CURVE('',#225,#230,#192,.T.);
#284=EDGE_CURVE('',#227,#231,#108,.T.);
#285=EDGE_CURVE('',#232,#231,#193,.T.);
#286=EDGE_CURVE('',#232,#233,#194,.T.);
#287=EDGE_CURVE('',#233,#234,#109,.T.);
#288=EDGE_CURVE('',#235,#234,#195,.T.);
#289=EDGE_CURVE('',#235,#236,#110,.T.);
#290=EDGE_CURVE('',#237,#236,#196,.T.);
#291=EDGE_CURVE('',#237,#238,#111,.T.);
#292=EDGE_CURVE('',#238,#239,#197,.T.);
#293=EDGE_CURVE('',#240,#239,#198,.T.);
#294=EDGE_CURVE('',#240,#241,#112,.T.);
#295=EDGE_CURVE('',#242,#241,#199,.T.);
#296=EDGE_CURVE('',#242,#243,#200,.T.);
#297=EDGE_CURVE('',#243,#244,#113,.T.);
#298=EDGE_CURVE('',#245,#244,#201,.T.);
#299=EDGE_CURVE('',#245,#246,#114,.T.);
#300=EDGE_CURVE('',#247,#246,#202,.T.);
#301=EDGE_CURVE('',#247,#229,#115,.T.);
#302=EDGE_CURVE('',#248,#248,#203,.T.);
#303=EDGE_CURVE('',#249,#249,#204,.T.);
#304=EDGE_CURVE('',#250,#250,#205,.T.);
#305=EDGE_CURVE('',#251,#251,#206,.T.);
#306=EDGE_CURVE('',#252,#252,#207,.T.);
#307=EDGE_CURVE('',#253,#253,#208,.T.);
#308=EDGE_CURVE('',#246,#254,#116,.T.);
#309=EDGE_CURVE('',#254,#255,#209,.T.);
#310=EDGE_CURVE('',#255,#247,#117,.T.);
#311=EDGE_CURVE('',#256,#245,#118,.T.);
#312=EDGE_CURVE('',#256,#254,#119,.T.);
#313=EDGE_CURVE('',#257,#256,#210,.T.);
#314=EDGE_CURVE('',#244,#257,#120,.T.);
#315=EDGE_CURVE('',#243,#258,#121,.T.);
#316=EDGE_CURVE('',#257,#258,#122,.T.);
#317=EDGE_CURVE('',#259,#260,#211,.T.);
#318=EDGE_CURVE('',#260,#242,#123,.T.);
#319=EDGE_CURVE('',#241,#259,#124,.T.);
#320=EDGE_CURVE('',#261,#240,#125,.T.);
#321=EDGE_CURVE('',#259,#261,#126,.T.);
#322=EDGE_CURVE('',#262,#263,#212,.T.);
#323=EDGE_CURVE('',#263,#235,#127,.T.);
#324=EDGE_CURVE('',#234,#262,#128,.T.);
#325=EDGE_CURVE('',#233,#264,#129,.T.);
#326=EDGE_CURVE('',#262,#264,#130,.T.);
#327=EDGE_CURVE('',#265,#266,#213,.T.);
#328=EDGE_CURVE('',#266,#232,#131,.T.);
#329=EDGE_CURVE('',#231,#265,#132,.T.);
#330=EDGE_CURVE('',#265,#226,#133,.T.);
#331=EDGE_CURVE('',#236,#267,#134,.T.);
#332=EDGE_CURVE('',#267,#268,#214,.T.);
#333=EDGE_CURVE('',#268,#237,#135,.T.);
#334=EDGE_CURVE('',#263,#267,#136,.T.);
#335=EDGE_CURVE('',#269,#261,#215,.T.);
#336=EDGE_CURVE('',#239,#269,#137,.T.);
#337=EDGE_CURVE('',#248,#270,#138,.T.);
#338=EDGE_CURVE('',#270,#270,#216,.T.);
#339=EDGE_CURVE('',#249,#271,#139,.T.);
#340=EDGE_CURVE('',#271,#271,#217,.T.);
#341=EDGE_CURVE('',#250,#272,#140,.T.);
#342=EDGE_CURVE('',#272,#272,#218,.T.);
#343=EDGE_CURVE('',#251,#273,#141,.T.);
#344=EDGE_CURVE('',#273,#273,#219,.T.);
#345=EDGE_CURVE('',#238,#274,#142,.T.);
#346=EDGE_CURVE('',#269,#274,#220,.T.);
#347=EDGE_CURVE('',#274,#268,#143,.T.);
#348=EDGE_CURVE('',#258,#260,#221,.T.);
#349=EDGE_CURVE('',#264,#266,#222,.T.);
#350=EDGE_CURVE('',#230,#255,#144,.T.);
#351=EDGE_CURVE('',#253,#275,#145,.T.);
#352=EDGE_CURVE('',#275,#275,#223,.F.);
#353=EDGE_CURVE('',#252,#276,#146,.T.);
#354=EDGE_CURVE('',#276,#276,#224,.F.);
#355=ORIENTED_EDGE('',*,*,#277,.T.);
#356=ORIENTED_EDGE('',*,*,#278,.T.);
#357=ORIENTED_EDGE('',*,*,#279,.T.);
#358=ORIENTED_EDGE('',*,*,#280,.T.);
#359=ORIENTED_EDGE('',*,*,#280,.F.);
#360=ORIENTED_EDGE('',*,*,#281,.F.);
#361=ORIENTED_EDGE('',*,*,#282,.T.);
#362=ORIENTED_EDGE('',*,*,#283,.F.);
#363=ORIENTED_EDGE('',*,*,#279,.F.);
#364=ORIENTED_EDGE('',*,*,#284,.T.);
#365=ORIENTED_EDGE('',*,*,#285,.F.);
#366=ORIENTED_EDGE('',*,*,#286,.T.);
#367=ORIENTED_EDGE('',*,*,#287,.T.);
#368=ORIENTED_EDGE('',*,*,#288,.F.);
#369=ORIENTED_EDGE('',*,*,#289,.T.);
#370=ORIENTED_EDGE('',*,*,#290,.F.);
#371=ORIENTED_EDGE('',*,*,#291,.T.);
#372=ORIENTED_EDGE('',*,*,#292,.T.);
#373=ORIENTED_EDGE('',*,*,#293,.F.);
#374=ORIENTED_EDGE('',*,*,#294,.T.);
#375=ORIENTED_EDGE('',*,*,#295,.F.);
#376=ORIENTED_EDGE('',*,*,#296,.T.);
#377=ORIENTED_EDGE('',*,*,#297,.T.);
#378=ORIENTED_EDGE('',*,*,#298,.F.);
#379=ORIENTED_EDGE('',*,*,#299,.T.);
#380=ORIENTED_EDGE('',*,*,#300,.F.);
#381=ORIENTED_EDGE('',*,*,#301,.T.);
#382=ORIENTED_EDGE('',*,*,#281,.T.);
#383=ORIENTED_EDGE('',*,*,#302,.T.);
#384=ORIENTED_EDGE('',*,*,#303,.T.);
#385=ORIENTED_EDGE('',*,*,#304,.T.);
#386=ORIENTED_EDGE('',*,*,#305,.T.);
#387=ORIENTED_EDGE('',*,*,#306,.T.);
#388=ORIENTED_EDGE('',*,*,#307,.T.);
#389=ORIENTED_EDGE('',*,*,#300,.T.);
#390=ORIENTED_EDGE('',*,*,#308,.T.);
#391=ORIENTED_EDGE('',*,*,#309,.T.);
#392=ORIENTED_EDGE('',*,*,#310,.T.);
#393=ORIENTED_EDGE('',*,*,#308,.F.);
#394=ORIENTED_EDGE('',*,*,#299,.F.);
#395=ORIENTED_EDGE('',*,*,#311,.F.);
#396=ORIENTED_EDGE('',*,*,#312,.T.);
#397=ORIENTED_EDGE('',*,*,#313,.T.);
#398=ORIENTED_EDGE('',*,*,#311,.T.);
#399=ORIENTED_EDGE('',*,*,#298,.T.);
#400=ORIENTED_EDGE('',*,*,#314,.T.);
#401=ORIENTED_EDGE('',*,*,#314,.F.);
#402=ORIENTED_EDGE('',*,*,#297,.F.);
#403=ORIENTED_EDGE('',*,*,#315,.T.);
#404=ORIENTED_EDGE('',*,*,#316,.F.);
#405=ORIENTED_EDGE('',*,*,#317,.T.);
#406=ORIENTED_EDGE('',*,*,#318,.T.);
#407=ORIENTED_EDGE('',*,*,#295,.T.);
#408=ORIENTED_EDGE('',*,*,#319,.T.);
#409=ORIENTED_EDGE('',*,*,#319,.F.);
#410=ORIENTED_EDGE('',*,*,#294,.F.);
#411=ORIENTED_EDGE('',*,*,#320,.F.);
#412=ORIENTED_EDGE('',*,*,#321,.F.);
#413=ORIENTED_EDGE('',*,*,#322,.T.);
#414=ORIENTED_EDGE('',*,*,#323,.T.);
#415=ORIENTED_EDGE('',*,*,#288,.T.);
#416=ORIENTED_EDGE('',*,*,#324,.T.);
#417=ORIENTED_EDGE('',*,*,#324,.F.);
#418=ORIENTED_EDGE('',*,*,#287,.F.);
#419=ORIENTED_EDGE('',*,*,#325,.T.);
#420=ORIENTED_EDGE('',*,*,#326,.F.);
#421=ORIENTED_EDGE('',*,*,#327,.T.);
#422=ORIENTED_EDGE('',*,*,#328,.T.);
#423=ORIENTED_EDGE('',*,*,#285,.T.);
#424=ORIENTED_EDGE('',*,*,#329,.T.);
#425=ORIENTED_EDGE('',*,*,#278,.F.);
#426=ORIENTED_EDGE('',*,*,#330,.F.);
#427=ORIENTED_EDGE('',*,*,#329,.F.);
#428=ORIENTED_EDGE('',*,*,#284,.F.);
#429=ORIENTED_EDGE('',*,*,#290,.T.);
#430=ORIENTED_EDGE('',*,*,#331,.T.);
#431=ORIENTED_EDGE('',*,*,#332,.T.);
#432=ORIENTED_EDGE('',*,*,#333,.T.);
#433=ORIENTED_EDGE('',*,*,#323,.F.);
#434=ORIENTED_EDGE('',*,*,#334,.T.);
#435=ORIENTED_EDGE('',*,*,#331,.F.);
#436=ORIENTED_EDGE('',*,*,#289,.F.);
#437=ORIENTED_EDGE('',*,*,#335,.T.);
#438=ORIENTED_EDGE('',*,*,#320,.T.);
#439=ORIENTED_EDGE('',*,*,#293,.T.);
#440=ORIENTED_EDGE('',*,*,#336,.T.);
#441=ORIENTED_EDGE('',*,*,#302,.F.);
#442=ORIENTED_EDGE('',*,*,#337,.T.);
#443=ORIENTED_EDGE('',*,*,#338,.F.);
#444=ORIENTED_EDGE('',*,*,#337,.F.);
#445=ORIENTED_EDGE('',*,*,#303,.F.);
#446=ORIENTED_EDGE('',*,*,#339,.T.);
#447=ORIENTED_EDGE('',*,*,#340,.F.);
#448=ORIENTED_EDGE('',*,*,#339,.F.);
#449=ORIENTED_EDGE('',*,*,#304,.F.);
#450=ORIENTED_EDGE('',*,*,#341,.T.);
#451=ORIENTED_EDGE('',*,*,#342,.F.);
#452=ORIENTED_EDGE('',*,*,#341,.F.);
#453=ORIENTED_EDGE('',*,*,#305,.F.);
#454=ORIENTED_EDGE('',*,*,#343,.T.);
#455=ORIENTED_EDGE('',*,*,#344,.F.);
#456=ORIENTED_EDGE('',*,*,#343,.F.);
#457=ORIENTED_EDGE('',*,*,#336,.F.);
#458=ORIENTED_EDGE('',*,*,#292,.F.);
#459=ORIENTED_EDGE('',*,*,#345,.T.);
#460=ORIENTED_EDGE('',*,*,#346,.F.);
#461=ORIENTED_EDGE('',*,*,#333,.F.);
#462=ORIENTED_EDGE('',*,*,#347,.F.);
#463=ORIENTED_EDGE('',*,*,#345,.F.);
#464=ORIENTED_EDGE('',*,*,#291,.F.);
#465=ORIENTED_EDGE('',*,*,#318,.F.);
#466=ORIENTED_EDGE('',*,*,#348,.F.);
#467=ORIENTED_EDGE('',*,*,#315,.F.);
#468=ORIENTED_EDGE('',*,*,#296,.F.);
#469=ORIENTED_EDGE('',*,*,#328,.F.);
#470=ORIENTED_EDGE('',*,*,#349,.F.);
#471=ORIENTED_EDGE('',*,*,#325,.F.);
#472=ORIENTED_EDGE('',*,*,#286,.F.);
#473=ORIENTED_EDGE('',*,*,#310,.F.);
#474=ORIENTED_EDGE('',*,*,#350,.F.);
#475=ORIENTED_EDGE('',*,*,#282,.F.);
#476=ORIENTED_EDGE('',*,*,#301,.F.);
#477=ORIENTED_EDGE('',*,*,#307,.F.);
#478=ORIENTED_EDGE('',*,*,#351,.T.);
#479=ORIENTED_EDGE('',*,*,#352,.F.);
#480=ORIENTED_EDGE('',*,*,#351,.F.);
#481=ORIENTED_EDGE('',*,*,#306,.F.);
#482=ORIENTED_EDGE('',*,*,#353,.T.);
#483=ORIENTED_EDGE('',*,*,#354,.F.);
#484=ORIENTED_EDGE('',*,*,#353,.F.);
#485=ORIENTED_EDGE('',*,*,#277,.F.);
#486=ORIENTED_EDGE('',*,*,#283,.T.);
#487=ORIENTED_EDGE('',*,*,#350,.T.);
#488=ORIENTED_EDGE('',*,*,#309,.F.);
#489=ORIENTED_EDGE('',*,*,#312,.F.);
#490=ORIENTED_EDGE('',*,*,#313,.F.);
#491=ORIENTED_EDGE('',*,*,#316,.T.);
#492=ORIENTED_EDGE('',*,*,#348,.T.);
#493=ORIENTED_EDGE('',*,*,#317,.F.);
#494=ORIENTED_EDGE('',*,*,#321,.T.);
#495=ORIENTED_EDGE('',*,*,#335,.F.);
#496=ORIENTED_EDGE('',*,*,#346,.T.);
#497=ORIENTED_EDGE('',*,*,#347,.T.);
#498=ORIENTED_EDGE('',*,*,#332,.F.);
#499=ORIENTED_EDGE('',*,*,#334,.F.);
#500=ORIENTED_EDGE('',*,*,#322,.F.);
#501=ORIENTED_EDGE('',*,*,#326,.T.);
#502=ORIENTED_EDGE('',*,*,#349,.T.);
#503=ORIENTED_EDGE('',*,*,#327,.F.);
#504=ORIENTED_EDGE('',*,*,#330,.T.);
#505=ORIENTED_EDGE('',*,*,#338,.T.);
#506=ORIENTED_EDGE('',*,*,#340,.T.);
#507=ORIENTED_EDGE('',*,*,#342,.T.);
#508=ORIENTED_EDGE('',*,*,#344,.T.);
#509=ORIENTED_EDGE('',*,*,#352,.T.);
#510=ORIENTED_EDGE('',*,*,#354,.T.);
#511=CYLINDRICAL_SURFACE('',#571,2.);
#512=CYLINDRICAL_SURFACE('',#574,3.5);
#513=CYLINDRICAL_SURFACE('',#594,2.);
#514=CYLINDRICAL_SURFACE('',#597,2.);
#515=CYLINDRICAL_SURFACE('',#600,2.);
#516=CYLINDRICAL_SURFACE('',#603,2.);
#517=CYLINDRICAL_SURFACE('',#606,2.);
#518=CYLINDRICAL_SURFACE('',#609,2.);
#519=CYLINDRICAL_SURFACE('',#612,2.);
#520=CYLINDRICAL_SURFACE('',#614,1.2);
#521=CYLINDRICAL_SURFACE('',#616,1.2);
#522=CYLINDRICAL_SURFACE('',#618,1.2);
#523=CYLINDRICAL_SURFACE('',#620,1.2);
#524=CYLINDRICAL_SURFACE('',#622,3.5);
#525=CYLINDRICAL_SURFACE('',#625,3.5);
#526=CYLINDRICAL_SURFACE('',#627,3.5);
#527=CYLINDRICAL_SURFACE('',#630,1.03775);
#528=CYLINDRICAL_SURFACE('',#632,1.03775);
#529=ADVANCED_FACE('',(#37),#511,.T.);
#530=ADVANCED_FACE('',(#38),#512,.F.);
#531=ADVANCED_FACE('',(#39,#15,#16,#17,#18,#19,#20),#27,.T.);
#532=ADVANCED_FACE('',(#40),#513,.T.);
#533=ADVANCED_FACE('',(#41),#28,.T.);
#534=ADVANCED_FACE('',(#42),#514,.T.);
#535=ADVANCED_FACE('',(#43),#29,.F.);
#536=ADVANCED_FACE('',(#44),#515,.T.);
#537=ADVANCED_FACE('',(#45),#30,.F.);
#538=ADVANCED_FACE('',(#46),#516,.T.);
#539=ADVANCED_FACE('',(#47),#31,.F.);
#540=ADVANCED_FACE('',(#48),#517,.T.);
#541=ADVANCED_FACE('',(#49),#32,.F.);
#542=ADVANCED_FACE('',(#50),#518,.T.);
#543=ADVANCED_FACE('',(#51),#33,.T.);
#544=ADVANCED_FACE('',(#52),#519,.T.);
#545=ADVANCED_FACE('',(#53),#520,.F.);
#546=ADVANCED_FACE('',(#54),#521,.F.);
#547=ADVANCED_FACE('',(#55),#522,.F.);
#548=ADVANCED_FACE('',(#56),#523,.F.);
#549=ADVANCED_FACE('',(#57),#524,.F.);
#550=ADVANCED_FACE('',(#58),#34,.F.);
#551=ADVANCED_FACE('',(#59),#525,.F.);
#552=ADVANCED_FACE('',(#60),#526,.F.);
#553=ADVANCED_FACE('',(#61),#35,.F.);
#554=ADVANCED_FACE('',(#62),#527,.F.);
#555=ADVANCED_FACE('',(#63),#528,.F.);
#556=ADVANCED_FACE('',(#64,#21,#22,#23,#24,#25,#26),#36,.F.);
#557=CLOSED_SHELL('',(#529,#530,#531,#532,#533,#534,#535,#536,#537,#538,
#539,#540,#541,#542,#543,#544,#545,#546,#547,#548,#549,#550,#551,#552,#553,
#554,#555,#556));
#558=DERIVED_UNIT_ELEMENT(#560,1.);
#559=DERIVED_UNIT_ELEMENT(#971,-3.);
#560=(
MASS_UNIT()
NAMED_UNIT(*)
SI_UNIT(.KILO.,.GRAM.)
);
#561=DERIVED_UNIT((#558,#559));
#562=MEASURE_REPRESENTATION_ITEM('density measure',
POSITIVE_RATIO_MEASURE(8940.),#561);
#563=PROPERTY_DEFINITION_REPRESENTATION(#568,#565);
#564=PROPERTY_DEFINITION_REPRESENTATION(#569,#566);
#565=REPRESENTATION('material name',(#567),#968);
#566=REPRESENTATION('density',(#562),#968);
#567=DESCRIPTIVE_REPRESENTATION_ITEM('Copper','Copper');
#568=PROPERTY_DEFINITION('material property','material name',#978);
#569=PROPERTY_DEFINITION('material property','density of part',#978);
#570=AXIS2_PLACEMENT_3D('',#807,#635,#636);
#571=AXIS2_PLACEMENT_3D('',#808,#637,#638);
#572=AXIS2_PLACEMENT_3D('',#811,#639,#640);
#573=AXIS2_PLACEMENT_3D('',#815,#642,#643);
#574=AXIS2_PLACEMENT_3D('',#817,#645,#646);
#575=AXIS2_PLACEMENT_3D('',#819,#647,#648);
#576=AXIS2_PLACEMENT_3D('',#822,#650,#651);
#577=AXIS2_PLACEMENT_3D('',#823,#652,#653);
#578=AXIS2_PLACEMENT_3D('',#827,#655,#656);
#579=AXIS2_PLACEMENT_3D('',#829,#657,#658);
#580=AXIS2_PLACEMENT_3D('',#833,#660,#661);
#581=AXIS2_PLACEMENT_3D('',#837,#663,#664);
#582=AXIS2_PLACEMENT_3D('',#841,#666,#667);
#583=AXIS2_PLACEMENT_3D('',#843,#668,#669);
#584=AXIS2_PLACEMENT_3D('',#847,#671,#672);
#585=AXIS2_PLACEMENT_3D('',#849,#673,#674);
#586=AXIS2_PLACEMENT_3D('',#853,#676,#677);
#587=AXIS2_PLACEMENT_3D('',#857,#679,#680);
#588=AXIS2_PLACEMENT_3D('',#860,#682,#683);
#589=AXIS2_PLACEMENT_3D('',#862,#684,#685);
#590=AXIS2_PLACEMENT_3D('',#864,#686,#687);
#591=AXIS2_PLACEMENT_3D('',#866,#688,#689);
#592=AXIS2_PLACEMENT_3D('',#868,#690,#691);
#593=AXIS2_PLACEMENT_3D('',#870,#692,#693);
#594=AXIS2_PLACEMENT_3D('',#871,#694,#695);
#595=AXIS2_PLACEMENT_3D('',#875,#697,#698);
#596=AXIS2_PLACEMENT_3D('',#877,#700,#701);
#597=AXIS2_PLACEMENT_3D('',#881,#704,#705);
#598=AXIS2_PLACEMENT_3D('',#883,#706,#707);
#599=AXIS2_PLACEMENT_3D('',#885,#709,#710);
#600=AXIS2_PLACEMENT_3D('',#889,#713,#714);
#601=AXIS2_PLACEMENT_3D('',#892,#715,#716);
#602=AXIS2_PLACEMENT_3D('',#895,#719,#720);
#603=AXIS2_PLACEMENT_3D('',#899,#723,#724);
#604=AXIS2_PLACEMENT_3D('',#902,#725,#726);
#605=AXIS2_PLACEMENT_3D('',#905,#729,#730);
#606=AXIS2_PLACEMENT_3D('',#909,#733,#734);
#607=AXIS2_PLACEMENT_3D('',#912,#735,#736);
#608=AXIS2_PLACEMENT_3D('',#915,#739,#740);
#609=AXIS2_PLACEMENT_3D('',#917,#742,#743);
#610=AXIS2_PLACEMENT_3D('',#921,#745,#746);
#611=AXIS2_PLACEMENT_3D('',#923,#748,#749);
#612=AXIS2_PLACEMENT_3D('',#925,#751,#752);
#613=AXIS2_PLACEMENT_3D('',#927,#753,#754);
#614=AXIS2_PLACEMENT_3D('',#929,#756,#757);
#615=AXIS2_PLACEMENT_3D('',#932,#759,#760);
#616=AXIS2_PLACEMENT_3D('',#933,#761,#762);
#617=AXIS2_PLACEMENT_3D('',#936,#764,#765);
#618=AXIS2_PLACEMENT_3D('',#937,#766,#767);
#619=AXIS2_PLACEMENT_3D('',#940,#769,#770);
#620=AXIS2_PLACEMENT_3D('',#941,#771,#772);
#621=AXIS2_PLACEMENT_3D('',#944,#774,#775);
#622=AXIS2_PLACEMENT_3D('',#945,#776,#777);
#623=AXIS2_PLACEMENT_3D('',#948,#779,#780);
#624=AXIS2_PLACEMENT_3D('',#949,#781,#782);
#625=AXIS2_PLACEMENT_3D('',#951,#784,#785);
#626=AXIS2_PLACEMENT_3D('',#952,#786,#787);
#627=AXIS2_PLACEMENT_3D('',#953,#788,#789);
#628=AXIS2_PLACEMENT_3D('',#954,#790,#791);
#629=AXIS2_PLACEMENT_3D('',#955,#792,#793);
#630=AXIS2_PLACEMENT_3D('',#957,#795,#796);
#631=AXIS2_PLACEMENT_3D('',#960,#798,#799);
#632=AXIS2_PLACEMENT_3D('',#961,#800,#801);
#633=AXIS2_PLACEMENT_3D('',#964,#803,#804);
#634=AXIS2_PLACEMENT_3D('',#965,#805,#806);
#635=DIRECTION('axis',(0.,0.,1.));
#636=DIRECTION('refdir',(1.,0.,0.));
#637=DIRECTION('center_axis',(0.,0.,-1.));
#638=DIRECTION('ref_axis',(-0.564076074817766,-0.825722823844771,0.));
#639=DIRECTION('center_axis',(0.,0.,1.));
#640=DIRECTION('ref_axis',(-0.564076074817766,-0.825722823844771,0.));
#641=DIRECTION('',(0.,0.,1.));
#642=DIRECTION('center_axis',(0.,0.,-1.));
#643=DIRECTION('ref_axis',(-0.564076074817766,-0.825722823844771,0.));
#644=DIRECTION('',(0.,0.,-1.));
#645=DIRECTION('center_axis',(0.,0.,-1.));
#646=DIRECTION('ref_axis',(-1.,0.,0.));
#647=DIRECTION('center_axis',(0.,0.,-1.));
#648=DIRECTION('ref_axis',(-1.,0.,0.));
#649=DIRECTION('',(0.,0.,-1.));
#650=DIRECTION('center_axis',(0.,0.,1.));
#651=DIRECTION('ref_axis',(-1.,0.,0.));
#652=DIRECTION('center_axis',(0.,0.,1.));
#653=DIRECTION('ref_axis',(1.,0.,0.));
#654=DIRECTION('',(1.,0.,0.));
#655=DIRECTION('center_axis',(0.,0.,-1.));
#656=DIRECTION('ref_axis',(0.564076074817765,-0.825722823844771,0.));
#657=DIRECTION('center_axis',(0.,0.,-1.));
#658=DIRECTION('ref_axis',(-1.,0.,0.));
#659=DIRECTION('',(1.,0.,0.));
#660=DIRECTION('center_axis',(0.,0.,-1.));
#661=DIRECTION('ref_axis',(0.707106781186548,-0.707106781186548,0.));
#662=DIRECTION('',(-1.11022302462516E-16,1.,0.));
#663=DIRECTION('center_axis',(0.,0.,-1.));
#664=DIRECTION('ref_axis',(0.707106781186548,0.707106781186548,0.));
#665=DIRECTION('',(-1.,0.,0.));
#666=DIRECTION('center_axis',(0.,0.,-1.));
#667=DIRECTION('ref_axis',(-1.,0.,0.));
#668=DIRECTION('center_axis',(0.,0.,-1.));
#669=DIRECTION('ref_axis',(0.564076074817764,0.825722823844772,0.));
#670=DIRECTION('',(-1.,0.,0.));
#671=DIRECTION('center_axis',(0.,0.,-1.));
#672=DIRECTION('ref_axis',(-0.564076074817765,0.825722823844771,0.));
#673=DIRECTION('center_axis',(0.,0.,-1.));
#674=DIRECTION('ref_axis',(-1.,0.,0.));
#675=DIRECTION('',(-1.,0.,0.));
#676=DIRECTION('center_axis',(0.,0.,-1.));
#677=DIRECTION('ref_axis',(-0.707106781186547,0.707106781186548,0.));
#678=DIRECTION('',(0.,-1.,0.));
#679=DIRECTION('center_axis',(0.,0.,-1.));
#680=DIRECTION('ref_axis',(-0.707106781186547,-0.707106781186548,0.));
#681=DIRECTION('',(1.,0.,0.));
#682=DIRECTION('center_axis',(0.,0.,-1.));
#683=DIRECTION('ref_axis',(1.,0.,0.));
#684=DIRECTION('center_axis',(0.,0.,-1.));
#685=DIRECTION('ref_axis',(1.,0.,0.));
#686=DIRECTION('center_axis',(0.,0.,-1.));
#687=DIRECTION('ref_axis',(1.,0.,0.));
#688=DIRECTION('center_axis',(0.,0.,-1.));
#689=DIRECTION('ref_axis',(1.,0.,0.));
#690=DIRECTION('center_axis',(0.,0.,-1.));
#691=DIRECTION('ref_axis',(1.,0.,0.));
#692=DIRECTION('center_axis',(0.,0.,-1.));
#693=DIRECTION('ref_axis',(1.,0.,0.));
#694=DIRECTION('center_axis',(0.,0.,1.));
#695=DIRECTION('ref_axis',(-0.707106781186547,-0.707106781186548,0.));
#696=DIRECTION('',(0.,0.,-1.));
#697=DIRECTION('center_axis',(0.,0.,1.));
#698=DIRECTION('ref_axis',(-0.707106781186547,-0.707106781186548,0.));
#699=DIRECTION('',(0.,0.,1.));
#700=DIRECTION('center_axis',(-1.,0.,0.));
#701=DIRECTION('ref_axis',(0.,-1.,0.));
#702=DIRECTION('',(0.,0.,1.));
#703=DIRECTION('',(0.,-1.,0.));
#704=DIRECTION('center_axis',(0.,0.,-1.));
#705=DIRECTION('ref_axis',(-0.707106781186547,0.707106781186548,0.));
#706=DIRECTION('center_axis',(0.,0.,1.));
#707=DIRECTION('ref_axis',(-0.707106781186547,0.707106781186548,0.));
#708=DIRECTION('',(0.,0.,-1.));
#709=DIRECTION('center_axis',(0.,-1.,0.));
#710=DIRECTION('ref_axis',(-1.,0.,0.));
#711=DIRECTION('',(0.,0.,-1.));
#712=DIRECTION('',(1.,0.,0.));
#713=DIRECTION('center_axis',(0.,0.,-1.));
#714=DIRECTION('ref_axis',(-0.564076074817765,0.825722823844771,0.));
#715=DIRECTION('center_axis',(0.,0.,1.));
#716=DIRECTION('ref_axis',(-0.564076074817765,0.825722823844771,0.));
#717=DIRECTION('',(0.,0.,1.));
#718=DIRECTION('',(0.,0.,-1.));
#719=DIRECTION('center_axis',(0.,-1.,0.));
#720=DIRECTION('ref_axis',(-1.,0.,0.));
#721=DIRECTION('',(0.,0.,1.));
#722=DIRECTION('',(1.,0.,0.));
#723=DIRECTION('center_axis',(0.,0.,-1.));
#724=DIRECTION('ref_axis',(0.707106781186548,-0.707106781186548,0.));
#725=DIRECTION('center_axis',(0.,0.,1.));
#726=DIRECTION('ref_axis',(0.707106781186548,-0.707106781186548,0.));
#727=DIRECTION('',(0.,0.,1.));
#728=DIRECTION('',(0.,0.,-1.));
#729=DIRECTION('center_axis',(0.,1.,0.));
#730=DIRECTION('ref_axis',(1.,0.,0.));
#731=DIRECTION('',(0.,0.,-1.));
#732=DIRECTION('',(-1.,0.,0.));
#733=DIRECTION('center_axis',(0.,0.,-1.));
#734=DIRECTION('ref_axis',(0.564076074817765,-0.825722823844771,0.));
#735=DIRECTION('center_axis',(0.,0.,1.));
#736=DIRECTION('ref_axis',(0.564076074817765,-0.825722823844771,0.));
#737=DIRECTION('',(0.,0.,1.));
#738=DIRECTION('',(0.,0.,-1.));
#739=DIRECTION('center_axis',(0.,1.,0.));
#740=DIRECTION('ref_axis',(1.,0.,0.));
#741=DIRECTION('',(-1.,0.,0.));
#742=DIRECTION('center_axis',(0.,0.,1.));
#743=DIRECTION('ref_axis',(0.707106781186548,0.707106781186548,0.));
#744=DIRECTION('',(0.,0.,-1.));
#745=DIRECTION('center_axis',(0.,0.,1.));
#746=DIRECTION('ref_axis',(0.707106781186548,0.707106781186548,0.));
#747=DIRECTION('',(0.,0.,1.));
#748=DIRECTION('center_axis',(1.,1.11022302462516E-16,0.));
#749=DIRECTION('ref_axis',(-1.11022302462516E-16,1.,0.));
#750=DIRECTION('',(-1.11022302462516E-16,1.,0.));
#751=DIRECTION('center_axis',(0.,0.,-1.));
#752=DIRECTION('ref_axis',(0.564076074817764,0.825722823844772,0.));
#753=DIRECTION('center_axis',(0.,0.,1.));
#754=DIRECTION('ref_axis',(0.564076074817764,0.825722823844772,0.));
#755=DIRECTION('',(0.,0.,-1.));
#756=DIRECTION('center_axis',(0.,0.,-1.));
#757=DIRECTION('ref_axis',(1.,0.,0.));
#758=DIRECTION('',(0.,0.,-1.));
#759=DIRECTION('center_axis',(0.,0.,1.));
#760=DIRECTION('ref_axis',(1.,0.,0.));
#761=DIRECTION('center_axis',(0.,0.,-1.));
#762=DIRECTION('ref_axis',(1.,0.,0.));
#763=DIRECTION('',(0.,0.,-1.));
#764=DIRECTION('center_axis',(0.,0.,1.));
#765=DIRECTION('ref_axis',(1.,0.,0.));
#766=DIRECTION('center_axis',(0.,0.,-1.));
#767=DIRECTION('ref_axis',(1.,0.,0.));
#768=DIRECTION('',(0.,0.,-1.));
#769=DIRECTION('center_axis',(0.,0.,1.));
#770=DIRECTION('ref_axis',(1.,0.,0.));
#771=DIRECTION('center_axis',(0.,0.,-1.));
#772=DIRECTION('ref_axis',(1.,0.,0.));
#773=DIRECTION('',(0.,0.,-1.));
#774=DIRECTION('center_axis',(0.,0.,1.));
#775=DIRECTION('ref_axis',(1.,0.,0.));
#776=DIRECTION('center_axis',(0.,0.,-1.));
#777=DIRECTION('ref_axis',(-1.,0.,0.));
#778=DIRECTION('',(0.,0.,-1.));
#779=DIRECTION('center_axis',(0.,0.,1.));
#780=DIRECTION('ref_axis',(-1.,0.,0.));
#781=DIRECTION('center_axis',(0.,-1.,0.));
#782=DIRECTION('ref_axis',(-1.,0.,0.));
#783=DIRECTION('',(1.,0.,0.));
#784=DIRECTION('center_axis',(0.,0.,-1.));
#785=DIRECTION('ref_axis',(-1.,0.,0.));
#786=DIRECTION('center_axis',(0.,0.,1.));
#787=DIRECTION('ref_axis',(-1.,0.,0.));
#788=DIRECTION('center_axis',(0.,0.,-1.));
#789=DIRECTION('ref_axis',(-1.,0.,0.));
#790=DIRECTION('center_axis',(0.,0.,1.));
#791=DIRECTION('ref_axis',(-1.,0.,0.));
#792=DIRECTION('center_axis',(0.,1.,0.));
#793=DIRECTION('ref_axis',(1.,0.,0.));
#794=DIRECTION('',(-1.,0.,0.));
#795=DIRECTION('center_axis',(0.,0.,-1.));
#796=DIRECTION('ref_axis',(1.,0.,0.));
#797=DIRECTION('',(0.,0.,-1.));
#798=DIRECTION('center_axis',(0.,0.,-1.));
#799=DIRECTION('ref_axis',(1.,0.,0.));
#800=DIRECTION('center_axis',(0.,0.,-1.));
#801=DIRECTION('ref_axis',(1.,0.,0.));
#802=DIRECTION('',(0.,0.,-1.));
#803=DIRECTION('center_axis',(0.,0.,-1.));
#804=DIRECTION('ref_axis',(1.,0.,0.));
#805=DIRECTION('center_axis',(0.,0.,1.));
#806=DIRECTION('ref_axis',(1.,0.,0.));
#807=CARTESIAN_POINT('',(0.,0.,0.));
#808=CARTESIAN_POINT('Origin',(10.1234753829798,7.00000000000001,2.5));
#809=CARTESIAN_POINT('',(8.26039342553259,6.27272727272728,0.));
#810=CARTESIAN_POINT('',(10.1234753829798,5.00000000000001,0.));
#811=CARTESIAN_POINT('Origin',(10.1234753829798,7.00000000000001,0.));
#812=CARTESIAN_POINT('',(10.1234753829798,5.00000000000001,2.5));
#813=CARTESIAN_POINT('',(10.1234753829798,5.00000000000001,2.5));
#814=CARTESIAN_POINT('',(8.26039342553259,6.27272727272728,2.5));
#815=CARTESIAN_POINT('Origin',(10.1234753829798,7.00000000000001,2.5));
#816=CARTESIAN_POINT('',(8.26039342553259,6.27272727272728,2.5));
#817=CARTESIAN_POINT('Origin',(5.,5.00000000000001,2.5));
#818=CARTESIAN_POINT('',(5.,8.50000000000001,2.5));
#819=CARTESIAN_POINT('Origin',(5.,5.00000000000001,2.5));
#820=CARTESIAN_POINT('',(5.,8.50000000000001,0.));
#821=CARTESIAN_POINT('',(5.,8.50000000000001,2.5));
#822=CARTESIAN_POINT('Origin',(5.,5.00000000000001,0.));
#823=CARTESIAN_POINT('Origin',(20.,20.,2.5));
#824=CARTESIAN_POINT('',(29.8765246170202,5.00000000000001,2.5));
#825=CARTESIAN_POINT('',(14.25,5.00000000000001,2.5));
#826=CARTESIAN_POINT('',(31.7396065744674,6.27272727272728,2.5));
#827=CARTESIAN_POINT('Origin',(29.8765246170202,7.00000000000001,2.5));
#828=CARTESIAN_POINT('',(35.,8.50000000000001,2.5));
#829=CARTESIAN_POINT('Origin',(35.,5.00000000000001,2.5));
#830=CARTESIAN_POINT('',(38.,8.50000000000001,2.5));
#831=CARTESIAN_POINT('',(27.5,8.50000000000001,2.5));
#832=CARTESIAN_POINT('',(40.,10.5,2.5));
#833=CARTESIAN_POINT('Origin',(38.,10.5,2.5));
#834=CARTESIAN_POINT('',(40.,29.5,2.5));
#835=CARTESIAN_POINT('',(40.,0.,2.5));
#836=CARTESIAN_POINT('',(38.,31.5,2.5));
#837=CARTESIAN_POINT('Origin',(38.,29.5,2.5));
#838=CARTESIAN_POINT('',(35.,31.5,2.5));
#839=CARTESIAN_POINT('',(30.,31.5,2.5));
#840=CARTESIAN_POINT('',(31.7396065744674,33.7272727272727,2.5));
#841=CARTESIAN_POINT('Origin',(35.,35.,2.5));
#842=CARTESIAN_POINT('',(29.8765246170202,35.,2.5));
#843=CARTESIAN_POINT('Origin',(29.8765246170202,33.,2.5));
#844=CARTESIAN_POINT('',(10.1234753829798,35.,2.5));
#845=CARTESIAN_POINT('',(25.75,35.,2.5));
#846=CARTESIAN_POINT('',(8.26039342553259,33.7272727272727,2.5));
#847=CARTESIAN_POINT('Origin',(10.1234753829798,33.,2.5));
#848=CARTESIAN_POINT('',(5.,31.5,2.5));
#849=CARTESIAN_POINT('Origin',(5.,35.,2.5));
#850=CARTESIAN_POINT('',(2.,31.5,2.5));
#851=CARTESIAN_POINT('',(12.5,31.5,2.5));
#852=CARTESIAN_POINT('',(0.,29.5,2.5));
#853=CARTESIAN_POINT('Origin',(2.,29.5,2.5));
#854=CARTESIAN_POINT('',(0.,10.5,2.5));
#855=CARTESIAN_POINT('',(0.,40.,2.5));
#856=CARTESIAN_POINT('',(2.,8.50000000000001,2.5));
#857=CARTESIAN_POINT('Origin',(2.,10.5,2.5));
#858=CARTESIAN_POINT('',(10.,8.50000000000001,2.5));
#859=CARTESIAN_POINT('',(26.8,7.50000000000001,2.5));
#860=CARTESIAN_POINT('Origin',(28.,7.50000000000001,2.5));
#861=CARTESIAN_POINT('',(10.8,32.5,2.5));
#862=CARTESIAN_POINT('Origin',(12.,32.5,2.5));
#863=CARTESIAN_POINT('',(26.8,32.5,2.5));
#864=CARTESIAN_POINT('Origin',(28.,32.5,2.5));
#865=CARTESIAN_POINT('',(10.8,7.50000000000001,2.5));
#866=CARTESIAN_POINT('Origin',(12.,7.50000000000001,2.5));
#867=CARTESIAN_POINT('',(29.46225,20.,2.5));
#868=CARTESIAN_POINT('Origin',(30.5,20.,2.5));
#869=CARTESIAN_POINT('',(8.46225,20.,2.5));
#870=CARTESIAN_POINT('Origin',(9.5,20.,2.5));
#871=CARTESIAN_POINT('Origin',(2.,10.5,1.25));
#872=CARTESIAN_POINT('',(0.,10.5,0.));
#873=CARTESIAN_POINT('',(0.,10.5,1.25));
#874=CARTESIAN_POINT('',(2.,8.50000000000001,0.));
#875=CARTESIAN_POINT('Origin',(2.,10.5,0.));
#876=CARTESIAN_POINT('',(2.,8.50000000000001,1.25));
#877=CARTESIAN_POINT('Origin',(0.,40.,0.));
#878=CARTESIAN_POINT('',(0.,29.5,0.));
#879=CARTESIAN_POINT('',(0.,29.5,1.25));
#880=CARTESIAN_POINT('',(0.,40.,0.));
#881=CARTESIAN_POINT('Origin',(2.,29.5,1.25));
#882=CARTESIAN_POINT('',(2.,31.5,0.));
#883=CARTESIAN_POINT('Origin',(2.,29.5,0.));
#884=CARTESIAN_POINT('',(2.,31.5,1.25));
#885=CARTESIAN_POINT('Origin',(5.,31.5,2.5));
#886=CARTESIAN_POINT('',(5.,31.5,0.));
#887=CARTESIAN_POINT('',(5.,31.5,2.5));
#888=CARTESIAN_POINT('',(12.5,31.5,0.));
#889=CARTESIAN_POINT('Origin',(10.1234753829798,33.,2.5));
#890=CARTESIAN_POINT('',(10.1234753829798,35.,0.));
#891=CARTESIAN_POINT('',(8.26039342553259,33.7272727272727,0.));
#892=CARTESIAN_POINT('Origin',(10.1234753829798,33.,0.));
#893=CARTESIAN_POINT('',(8.26039342553259,33.7272727272727,2.5));
#894=CARTESIAN_POINT('',(10.1234753829798,35.,2.5));
#895=CARTESIAN_POINT('Origin',(31.5,35.,2.5));
#896=CARTESIAN_POINT('',(29.8765246170202,35.,0.));
#897=CARTESIAN_POINT('',(29.8765246170202,35.,2.5));
#898=CARTESIAN_POINT('',(25.75,35.,0.));
#899=CARTESIAN_POINT('Origin',(38.,10.5,1.25));
#900=CARTESIAN_POINT('',(38.,8.50000000000001,0.));
#901=CARTESIAN_POINT('',(40.,10.5,0.));
#902=CARTESIAN_POINT('Origin',(38.,10.5,0.));
#903=CARTESIAN_POINT('',(40.,10.5,1.25));
#904=CARTESIAN_POINT('',(38.,8.50000000000001,1.25));
#905=CARTESIAN_POINT('Origin',(35.,8.50000000000001,2.5));
#906=CARTESIAN_POINT('',(35.,8.50000000000001,0.));
#907=CARTESIAN_POINT('',(35.,8.50000000000001,2.5));
#908=CARTESIAN_POINT('',(27.5,8.50000000000001,0.));
#909=CARTESIAN_POINT('Origin',(29.8765246170202,7.00000000000001,2.5));
#910=CARTESIAN_POINT('',(29.8765246170202,5.00000000000001,0.));
#911=CARTESIAN_POINT('',(31.7396065744674,6.27272727272728,0.));
#912=CARTESIAN_POINT('Origin',(29.8765246170202,7.00000000000001,0.));
#913=CARTESIAN_POINT('',(31.7396065744674,6.27272727272728,2.5));
#914=CARTESIAN_POINT('',(29.8765246170202,5.00000000000001,2.5));
#915=CARTESIAN_POINT('Origin',(8.5,5.00000000000001,2.5));
#916=CARTESIAN_POINT('',(14.25,5.00000000000001,0.));
#917=CARTESIAN_POINT('Origin',(38.,29.5,1.25));
#918=CARTESIAN_POINT('',(40.,29.5,0.));
#919=CARTESIAN_POINT('',(40.,29.5,1.25));
#920=CARTESIAN_POINT('',(38.,31.5,0.));
#921=CARTESIAN_POINT('Origin',(38.,29.5,0.));
#922=CARTESIAN_POINT('',(38.,31.5,1.25));
#923=CARTESIAN_POINT('Origin',(40.,0.,0.));
#924=CARTESIAN_POINT('',(40.,0.,0.));
#925=CARTESIAN_POINT('Origin',(29.8765246170202,33.,2.5));
#926=CARTESIAN_POINT('',(31.7396065744674,33.7272727272727,0.));
#927=CARTESIAN_POINT('Origin',(29.8765246170202,33.,0.));
#928=CARTESIAN_POINT('',(31.7396065744674,33.7272727272727,2.5));
#929=CARTESIAN_POINT('Origin',(28.,7.50000000000001,1.125));
#930=CARTESIAN_POINT('',(26.8,7.50000000000001,0.));
#931=CARTESIAN_POINT('',(26.8,7.50000000000001,1.125));
#932=CARTESIAN_POINT('Origin',(28.,7.50000000000001,0.));
#933=CARTESIAN_POINT('Origin',(12.,32.5,1.125));
#934=CARTESIAN_POINT('',(10.8,32.5,0.));
#935=CARTESIAN_POINT('',(10.8,32.5,1.125));
#936=CARTESIAN_POINT('Origin',(12.,32.5,0.));
#937=CARTESIAN_POINT('Origin',(28.,32.5,1.125));
#938=CARTESIAN_POINT('',(26.8,32.5,0.));
#939=CARTESIAN_POINT('',(26.8,32.5,1.125));
#940=CARTESIAN_POINT('Origin',(28.,32.5,0.));
#941=CARTESIAN_POINT('Origin',(12.,7.50000000000001,1.125));
#942=CARTESIAN_POINT('',(10.8,7.50000000000001,0.));
#943=CARTESIAN_POINT('',(10.8,7.50000000000001,1.125));
#944=CARTESIAN_POINT('Origin',(12.,7.50000000000001,0.));
#945=CARTESIAN_POINT('Origin',(35.,35.,2.5));
#946=CARTESIAN_POINT('',(35.,31.5,0.));
#947=CARTESIAN_POINT('',(35.,31.5,2.5));
#948=CARTESIAN_POINT('Origin',(35.,35.,0.));
#949=CARTESIAN_POINT('Origin',(40.,31.5,2.5));
#950=CARTESIAN_POINT('',(30.,31.5,0.));
#951=CARTESIAN_POINT('Origin',(5.,35.,2.5));
#952=CARTESIAN_POINT('Origin',(5.,35.,0.));
#953=CARTESIAN_POINT('Origin',(35.,5.00000000000001,2.5));
#954=CARTESIAN_POINT('Origin',(35.,5.00000000000001,0.));
#955=CARTESIAN_POINT('Origin',(0.,8.50000000000001,2.5));
#956=CARTESIAN_POINT('',(10.,8.50000000000001,0.));
#957=CARTESIAN_POINT('Origin',(9.5,20.,1.125));
#958=CARTESIAN_POINT('',(8.46225,20.,0.));
#959=CARTESIAN_POINT('',(8.46225,20.,1.125));
#960=CARTESIAN_POINT('Origin',(9.5,20.,0.));
#961=CARTESIAN_POINT('Origin',(30.5,20.,1.125));
#962=CARTESIAN_POINT('',(29.46225,20.,0.));
#963=CARTESIAN_POINT('',(29.46225,20.,1.125));
#964=CARTESIAN_POINT('Origin',(30.5,20.,0.));
#965=CARTESIAN_POINT('Origin',(20.,20.,0.));
#966=UNCERTAINTY_MEASURE_WITH_UNIT(LENGTH_MEASURE(0.01),#970,
'DISTANCE_ACCURACY_VALUE',
'Maximum model space distance between geometric entities at asserted c
onnectivities');
#967=UNCERTAINTY_MEASURE_WITH_UNIT(LENGTH_MEASURE(0.01),#970,
'DISTANCE_ACCURACY_VALUE',
'Maximum model space distance between geometric entities at asserted c
onnectivities');
#968=(
GEOMETRIC_REPRESENTATION_CONTEXT(3)
GLOBAL_UNCERTAINTY_ASSIGNED_CONTEXT((#966))
GLOBAL_UNIT_ASSIGNED_CONTEXT((#970,#972,#973))
REPRESENTATION_CONTEXT('','3D')
);
#969=(
GEOMETRIC_REPRESENTATION_CONTEXT(3)
GLOBAL_UNCERTAINTY_ASSIGNED_CONTEXT((#967))
GLOBAL_UNIT_ASSIGNED_CONTEXT((#970,#972,#973))
REPRESENTATION_CONTEXT('','3D')
);
#970=(
LENGTH_UNIT()
NAMED_UNIT(*)
SI_UNIT(.MILLI.,.METRE.)
);
#971=(
LENGTH_UNIT()
NAMED_UNIT(*)
SI_UNIT($,.METRE.)
);
#972=(
NAMED_UNIT(*)
PLANE_ANGLE_UNIT()
SI_UNIT($,.RADIAN.)
);
#973=(
NAMED_UNIT(*)
SI_UNIT($,.STERADIAN.)
SOLID_ANGLE_UNIT()
);
#974=SHAPE_DEFINITION_REPRESENTATION(#975,#976);
#975=PRODUCT_DEFINITION_SHAPE('',$,#978);
#976=SHAPE_REPRESENTATION('',(#570),#968);
#977=PRODUCT_DEFINITION_CONTEXT('part definition',#982,'design');
#978=PRODUCT_DEFINITION('Laser_Mnt','Laser_Mnt v16',#979,#977);
#979=PRODUCT_DEFINITION_FORMATION('',$,#984);
#980=PRODUCT_RELATED_PRODUCT_CATEGORY('Laser_Mnt v16','Laser_Mnt v16',(#984));
#981=APPLICATION_PROTOCOL_DEFINITION('international standard',
'automotive_design',2009,#982);
#982=APPLICATION_CONTEXT(
'Core Data for Automotive Mechanical Design Process');
#983=PRODUCT_CONTEXT('part definition',#982,'mechanical');
#984=PRODUCT('Laser_Mnt','Laser_Mnt v16',$,(#983));
#985=PRESENTATION_STYLE_ASSIGNMENT((#986));
#986=SURFACE_STYLE_USAGE(.BOTH.,#987);
#987=SURFACE_SIDE_STYLE('',(#988));
#988=SURFACE_STYLE_FILL_AREA(#989);
#989=FILL_AREA_STYLE('Copper - Polished',(#990));
#990=FILL_AREA_STYLE_COLOUR('Copper - Polished',#991);
#991=COLOUR_RGB('Copper - Polished',0.929411764705882,0.807843137254902,
0.764705882352941);
ENDSEC;
END-ISO-10303-21;
