ISO-10303-21;
HEADER;
/* Generated by software containing ST-Developer
 * from STEP Tools, Inc. (www.steptools.com) 
 */

FILE_DESCRIPTION(
/* description */ (''),
/* implementation_level */ '2;1');

FILE_NAME(
/* name */ 'Servo_Mount.step',
/* time_stamp */ '2025-05-04T22:38:41-07:00',
/* author */ (''),
/* organization */ (''),
/* preprocessor_version */ 'ST-DEVELOPER v20.1',
/* originating_system */ 'Autodesk Translation Framework v14.4.0.0',
/* authorisation */ '');

FILE_SCHEMA (('AUTOMOTIVE_DESIGN { 1 0 10303 214 3 1 1 }'));
ENDSEC;

DATA;
#10=MECHANICAL_DESIGN_GEOMETRIC_PRESENTATION_REPRESENTATION('',(#13),#658);
#11=SHAPE_REPRESENTATION_RELATIONSHIP('SRR','None',#665,#12);
#12=ADVANCED_BREP_SHAPE_REPRESENTATION('',(#14),#657);
#13=STYLED_ITEM('',(#675),#14);
#14=MANIFOLD_SOLID_BREP('Body1',#382);
#15=FACE_BOUND('',#59,.T.);
#16=FACE_BOUND('',#60,.T.);
#17=FACE_BOUND('',#61,.T.);
#18=FACE_BOUND('',#62,.T.);
#19=FACE_BOUND('',#63,.T.);
#20=FACE_BOUND('',#64,.T.);
#21=FACE_BOUND('',#79,.T.);
#22=FACE_BOUND('',#80,.T.);
#23=FACE_BOUND('',#81,.T.);
#24=FACE_BOUND('',#82,.T.);
#25=FACE_BOUND('',#83,.T.);
#26=FACE_BOUND('',#84,.T.);
#27=PLANE('',#405);
#28=PLANE('',#406);
#29=PLANE('',#417);
#30=PLANE('',#424);
#31=PLANE('',#427);
#32=PLANE('',#434);
#33=PLANE('',#435);
#34=PLANE('',#436);
#35=FACE_OUTER_BOUND('',#54,.T.);
#36=FACE_OUTER_BOUND('',#55,.T.);
#37=FACE_OUTER_BOUND('',#56,.T.);
#38=FACE_OUTER_BOUND('',#57,.T.);
#39=FACE_OUTER_BOUND('',#58,.T.);
#40=FACE_OUTER_BOUND('',#65,.T.);
#41=FACE_OUTER_BOUND('',#66,.T.);
#42=FACE_OUTER_BOUND('',#67,.T.);
#43=FACE_OUTER_BOUND('',#68,.T.);
#44=FACE_OUTER_BOUND('',#69,.T.);
#45=FACE_OUTER_BOUND('',#70,.T.);
#46=FACE_OUTER_BOUND('',#71,.T.);
#47=FACE_OUTER_BOUND('',#72,.T.);
#48=FACE_OUTER_BOUND('',#73,.T.);
#49=FACE_OUTER_BOUND('',#74,.T.);
#50=FACE_OUTER_BOUND('',#75,.T.);
#51=FACE_OUTER_BOUND('',#76,.T.);
#52=FACE_OUTER_BOUND('',#77,.T.);
#53=FACE_OUTER_BOUND('',#78,.T.);
#54=EDGE_LOOP('',(#250,#251,#252,#253));
#55=EDGE_LOOP('',(#254,#255,#256,#257));
#56=EDGE_LOOP('',(#258,#259,#260,#261));
#57=EDGE_LOOP('',(#262,#263,#264,#265));
#58=EDGE_LOOP('',(#266,#267,#268,#269,#270,#271,#272,#273));
#59=EDGE_LOOP('',(#274));
#60=EDGE_LOOP('',(#275));
#61=EDGE_LOOP('',(#276));
#62=EDGE_LOOP('',(#277,#278,#279,#280));
#63=EDGE_LOOP('',(#281));
#64=EDGE_LOOP('',(#282));
#65=EDGE_LOOP('',(#283,#284,#285,#286));
#66=EDGE_LOOP('',(#287,#288,#289,#290));
#67=EDGE_LOOP('',(#291,#292,#293,#294));
#68=EDGE_LOOP('',(#295,#296,#297,#298));
#69=EDGE_LOOP('',(#299,#300,#301,#302));
#70=EDGE_LOOP('',(#303,#304,#305,#306));
#71=EDGE_LOOP('',(#307,#308,#309,#310));
#72=EDGE_LOOP('',(#311,#312,#313,#314));
#73=EDGE_LOOP('',(#315,#316,#317,#318));
#74=EDGE_LOOP('',(#319,#320,#321,#322));
#75=EDGE_LOOP('',(#323,#324,#325,#326));
#76=EDGE_LOOP('',(#327,#328,#329,#330));
#77=EDGE_LOOP('',(#331,#332,#333,#334));
#78=EDGE_LOOP('',(#335,#336,#337,#338,#339,#340,#341,#342));
#79=EDGE_LOOP('',(#343));
#80=EDGE_LOOP('',(#344));
#81=EDGE_LOOP('',(#345));
#82=EDGE_LOOP('',(#346,#347,#348,#349));
#83=EDGE_LOOP('',(#350));
#84=EDGE_LOOP('',(#351));
#85=LINE('',#555,#114);
#86=LINE('',#561,#115);
#87=LINE('',#568,#116);
#88=LINE('',#571,#117);
#89=LINE('',#574,#118);
#90=LINE('',#576,#119);
#91=LINE('',#577,#120);
#92=LINE('',#580,#121);
#93=LINE('',#584,#122);
#94=LINE('',#588,#123);
#95=LINE('',#594,#124);
#96=LINE('',#598,#125);
#97=LINE('',#606,#126);
#98=LINE('',#609,#127);
#99=LINE('',#612,#128);
#100=LINE('',#613,#129);
#101=LINE('',#617,#130);
#102=LINE('',#620,#131);
#103=LINE('',#625,#132);
#104=LINE('',#628,#133);
#105=LINE('',#630,#134);
#106=LINE('',#631,#135);
#107=LINE('',#635,#136);
#108=LINE('',#638,#137);
#109=LINE('',#639,#138);
#110=LINE('',#645,#139);
#111=LINE('',#649,#140);
#112=LINE('',#651,#141);
#113=LINE('',#653,#142);
#114=VECTOR('',#443,2.5);
#115=VECTOR('',#450,2.5);
#116=VECTOR('',#457,10.);
#117=VECTOR('',#460,10.);
#118=VECTOR('',#463,10.);
#119=VECTOR('',#464,10.);
#120=VECTOR('',#465,10.);
#121=VECTOR('',#468,10.);
#122=VECTOR('',#471,10.);
#123=VECTOR('',#474,10.);
#124=VECTOR('',#479,10.);
#125=VECTOR('',#482,10.);
#126=VECTOR('',#491,10.);
#127=VECTOR('',#494,10.);
#128=VECTOR('',#497,10.);
#129=VECTOR('',#498,10.);
#130=VECTOR('',#503,10.);
#131=VECTOR('',#506,10.);
#132=VECTOR('',#513,2.5);
#133=VECTOR('',#516,10.);
#134=VECTOR('',#517,10.);
#135=VECTOR('',#518,10.);
#136=VECTOR('',#523,10.);
#137=VECTOR('',#526,10.);
#138=VECTOR('',#527,10.);
#139=VECTOR('',#536,2.5);
#140=VECTOR('',#541,2.5);
#141=VECTOR('',#544,10.);
#142=VECTOR('',#547,10.);
#143=CIRCLE('',#397,2.5);
#144=CIRCLE('',#398,2.5);
#145=CIRCLE('',#400,2.5);
#146=CIRCLE('',#401,2.5);
#147=CIRCLE('',#403,2.);
#148=CIRCLE('',#404,2.);
#149=CIRCLE('',#407,2.);
#150=CIRCLE('',#408,2.);
#151=CIRCLE('',#409,2.);
#152=CIRCLE('',#410,2.5);
#153=CIRCLE('',#411,3.50000132371895);
#154=CIRCLE('',#412,3.50000132371895);
#155=CIRCLE('',#413,2.5);
#156=CIRCLE('',#414,2.5);
#157=CIRCLE('',#416,2.);
#158=CIRCLE('',#419,2.);
#159=CIRCLE('',#421,2.);
#160=CIRCLE('',#423,2.5);
#161=CIRCLE('',#426,3.50000132371895);
#162=CIRCLE('',#429,3.50000132371895);
#163=CIRCLE('',#431,2.5);
#164=CIRCLE('',#433,2.5);
#165=VERTEX_POINT('',#552);
#166=VERTEX_POINT('',#554);
#167=VERTEX_POINT('',#558);
#168=VERTEX_POINT('',#560);
#169=VERTEX_POINT('',#564);
#170=VERTEX_POINT('',#565);
#171=VERTEX_POINT('',#567);
#172=VERTEX_POINT('',#569);
#173=VERTEX_POINT('',#573);
#174=VERTEX_POINT('',#575);
#175=VERTEX_POINT('',#579);
#176=VERTEX_POINT('',#581);
#177=VERTEX_POINT('',#583);
#178=VERTEX_POINT('',#585);
#179=VERTEX_POINT('',#587);
#180=VERTEX_POINT('',#590);
#181=VERTEX_POINT('',#592);
#182=VERTEX_POINT('',#593);
#183=VERTEX_POINT('',#595);
#184=VERTEX_POINT('',#597);
#185=VERTEX_POINT('',#600);
#186=VERTEX_POINT('',#602);
#187=VERTEX_POINT('',#605);
#188=VERTEX_POINT('',#607);
#189=VERTEX_POINT('',#611);
#190=VERTEX_POINT('',#615);
#191=VERTEX_POINT('',#619);
#192=VERTEX_POINT('',#623);
#193=VERTEX_POINT('',#627);
#194=VERTEX_POINT('',#629);
#195=VERTEX_POINT('',#633);
#196=VERTEX_POINT('',#637);
#197=VERTEX_POINT('',#643);
#198=VERTEX_POINT('',#647);
#199=EDGE_CURVE('',#165,#165,#143,.T.);
#200=EDGE_CURVE('',#165,#166,#85,.T.);
#201=EDGE_CURVE('',#166,#166,#144,.T.);
#202=EDGE_CURVE('',#167,#167,#145,.T.);
#203=EDGE_CURVE('',#167,#168,#86,.T.);
#204=EDGE_CURVE('',#168,#168,#146,.T.);
#205=EDGE_CURVE('',#169,#170,#147,.T.);
#206=EDGE_CURVE('',#170,#171,#87,.T.);
#207=EDGE_CURVE('',#171,#172,#148,.T.);
#208=EDGE_CURVE('',#172,#169,#88,.T.);
#209=EDGE_CURVE('',#173,#170,#89,.T.);
#210=EDGE_CURVE('',#174,#173,#90,.T.);
#211=EDGE_CURVE('',#171,#174,#91,.T.);
#212=EDGE_CURVE('',#169,#175,#92,.T.);
#213=EDGE_CURVE('',#176,#175,#149,.T.);
#214=EDGE_CURVE('',#176,#177,#93,.T.);
#215=EDGE_CURVE('',#178,#177,#150,.T.);
#216=EDGE_CURVE('',#178,#179,#94,.T.);
#217=EDGE_CURVE('',#173,#179,#151,.T.);
#218=EDGE_CURVE('',#180,#180,#152,.T.);
#219=EDGE_CURVE('',#181,#182,#95,.T.);
#220=EDGE_CURVE('',#182,#183,#153,.T.);
#221=EDGE_CURVE('',#183,#184,#96,.T.);
#222=EDGE_CURVE('',#184,#181,#154,.T.);
#223=EDGE_CURVE('',#185,#185,#155,.T.);
#224=EDGE_CURVE('',#186,#186,#156,.T.);
#225=EDGE_CURVE('',#175,#187,#97,.T.);
#226=EDGE_CURVE('',#187,#188,#157,.T.);
#227=EDGE_CURVE('',#188,#176,#98,.T.);
#228=EDGE_CURVE('',#189,#188,#99,.T.);
#229=EDGE_CURVE('',#177,#189,#100,.T.);
#230=EDGE_CURVE('',#189,#190,#158,.T.);
#231=EDGE_CURVE('',#190,#178,#101,.T.);
#232=EDGE_CURVE('',#179,#191,#102,.T.);
#233=EDGE_CURVE('',#191,#174,#159,.T.);
#234=EDGE_CURVE('',#192,#192,#160,.T.);
#235=EDGE_CURVE('',#192,#180,#103,.T.);
#236=EDGE_CURVE('',#193,#183,#104,.T.);
#237=EDGE_CURVE('',#194,#193,#105,.T.);
#238=EDGE_CURVE('',#194,#184,#106,.T.);
#239=EDGE_CURVE('',#195,#194,#161,.T.);
#240=EDGE_CURVE('',#195,#181,#107,.T.);
#241=EDGE_CURVE('',#196,#195,#108,.T.);
#242=EDGE_CURVE('',#196,#182,#109,.T.);
#243=EDGE_CURVE('',#193,#196,#162,.T.);
#244=EDGE_CURVE('',#197,#197,#163,.T.);
#245=EDGE_CURVE('',#197,#185,#110,.T.);
#246=EDGE_CURVE('',#198,#198,#164,.T.);
#247=EDGE_CURVE('',#198,#186,#111,.T.);
#248=EDGE_CURVE('',#191,#190,#112,.T.);
#249=EDGE_CURVE('',#187,#172,#113,.T.);
#250=ORIENTED_EDGE('',*,*,#199,.F.);
#251=ORIENTED_EDGE('',*,*,#200,.T.);
#252=ORIENTED_EDGE('',*,*,#201,.F.);
#253=ORIENTED_EDGE('',*,*,#200,.F.);
#254=ORIENTED_EDGE('',*,*,#202,.F.);
#255=ORIENTED_EDGE('',*,*,#203,.T.);
#256=ORIENTED_EDGE('',*,*,#204,.F.);
#257=ORIENTED_EDGE('',*,*,#203,.F.);
#258=ORIENTED_EDGE('',*,*,#205,.T.);
#259=ORIENTED_EDGE('',*,*,#206,.T.);
#260=ORIENTED_EDGE('',*,*,#207,.T.);
#261=ORIENTED_EDGE('',*,*,#208,.T.);
#262=ORIENTED_EDGE('',*,*,#206,.F.);
#263=ORIENTED_EDGE('',*,*,#209,.F.);
#264=ORIENTED_EDGE('',*,*,#210,.F.);
#265=ORIENTED_EDGE('',*,*,#211,.F.);
#266=ORIENTED_EDGE('',*,*,#205,.F.);
#267=ORIENTED_EDGE('',*,*,#212,.T.);
#268=ORIENTED_EDGE('',*,*,#213,.F.);
#269=ORIENTED_EDGE('',*,*,#214,.T.);
#270=ORIENTED_EDGE('',*,*,#215,.F.);
#271=ORIENTED_EDGE('',*,*,#216,.T.);
#272=ORIENTED_EDGE('',*,*,#217,.F.);
#273=ORIENTED_EDGE('',*,*,#209,.T.);
#274=ORIENTED_EDGE('',*,*,#199,.T.);
#275=ORIENTED_EDGE('',*,*,#202,.T.);
#276=ORIENTED_EDGE('',*,*,#218,.T.);
#277=ORIENTED_EDGE('',*,*,#219,.T.);
#278=ORIENTED_EDGE('',*,*,#220,.T.);
#279=ORIENTED_EDGE('',*,*,#221,.T.);
#280=ORIENTED_EDGE('',*,*,#222,.T.);
#281=ORIENTED_EDGE('',*,*,#223,.T.);
#282=ORIENTED_EDGE('',*,*,#224,.T.);
#283=ORIENTED_EDGE('',*,*,#213,.T.);
#284=ORIENTED_EDGE('',*,*,#225,.T.);
#285=ORIENTED_EDGE('',*,*,#226,.T.);
#286=ORIENTED_EDGE('',*,*,#227,.T.);
#287=ORIENTED_EDGE('',*,*,#227,.F.);
#288=ORIENTED_EDGE('',*,*,#228,.F.);
#289=ORIENTED_EDGE('',*,*,#229,.F.);
#290=ORIENTED_EDGE('',*,*,#214,.F.);
#291=ORIENTED_EDGE('',*,*,#215,.T.);
#292=ORIENTED_EDGE('',*,*,#229,.T.);
#293=ORIENTED_EDGE('',*,*,#230,.T.);
#294=ORIENTED_EDGE('',*,*,#231,.T.);
#295=ORIENTED_EDGE('',*,*,#217,.T.);
#296=ORIENTED_EDGE('',*,*,#232,.T.);
#297=ORIENTED_EDGE('',*,*,#233,.T.);
#298=ORIENTED_EDGE('',*,*,#210,.T.);
#299=ORIENTED_EDGE('',*,*,#234,.F.);
#300=ORIENTED_EDGE('',*,*,#235,.T.);
#301=ORIENTED_EDGE('',*,*,#218,.F.);
#302=ORIENTED_EDGE('',*,*,#235,.F.);
#303=ORIENTED_EDGE('',*,*,#221,.F.);
#304=ORIENTED_EDGE('',*,*,#236,.F.);
#305=ORIENTED_EDGE('',*,*,#237,.F.);
#306=ORIENTED_EDGE('',*,*,#238,.T.);
#307=ORIENTED_EDGE('',*,*,#222,.F.);
#308=ORIENTED_EDGE('',*,*,#238,.F.);
#309=ORIENTED_EDGE('',*,*,#239,.F.);
#310=ORIENTED_EDGE('',*,*,#240,.T.);
#311=ORIENTED_EDGE('',*,*,#219,.F.);
#312=ORIENTED_EDGE('',*,*,#240,.F.);
#313=ORIENTED_EDGE('',*,*,#241,.F.);
#314=ORIENTED_EDGE('',*,*,#242,.T.);
#315=ORIENTED_EDGE('',*,*,#220,.F.);
#316=ORIENTED_EDGE('',*,*,#242,.F.);
#317=ORIENTED_EDGE('',*,*,#243,.F.);
#318=ORIENTED_EDGE('',*,*,#236,.T.);
#319=ORIENTED_EDGE('',*,*,#244,.F.);
#320=ORIENTED_EDGE('',*,*,#245,.T.);
#321=ORIENTED_EDGE('',*,*,#223,.F.);
#322=ORIENTED_EDGE('',*,*,#245,.F.);
#323=ORIENTED_EDGE('',*,*,#246,.F.);
#324=ORIENTED_EDGE('',*,*,#247,.T.);
#325=ORIENTED_EDGE('',*,*,#224,.F.);
#326=ORIENTED_EDGE('',*,*,#247,.F.);
#327=ORIENTED_EDGE('',*,*,#231,.F.);
#328=ORIENTED_EDGE('',*,*,#248,.F.);
#329=ORIENTED_EDGE('',*,*,#232,.F.);
#330=ORIENTED_EDGE('',*,*,#216,.F.);
#331=ORIENTED_EDGE('',*,*,#208,.F.);
#332=ORIENTED_EDGE('',*,*,#249,.F.);
#333=ORIENTED_EDGE('',*,*,#225,.F.);
#334=ORIENTED_EDGE('',*,*,#212,.F.);
#335=ORIENTED_EDGE('',*,*,#207,.F.);
#336=ORIENTED_EDGE('',*,*,#211,.T.);
#337=ORIENTED_EDGE('',*,*,#233,.F.);
#338=ORIENTED_EDGE('',*,*,#248,.T.);
#339=ORIENTED_EDGE('',*,*,#230,.F.);
#340=ORIENTED_EDGE('',*,*,#228,.T.);
#341=ORIENTED_EDGE('',*,*,#226,.F.);
#342=ORIENTED_EDGE('',*,*,#249,.T.);
#343=ORIENTED_EDGE('',*,*,#201,.T.);
#344=ORIENTED_EDGE('',*,*,#204,.T.);
#345=ORIENTED_EDGE('',*,*,#234,.T.);
#346=ORIENTED_EDGE('',*,*,#241,.T.);
#347=ORIENTED_EDGE('',*,*,#239,.T.);
#348=ORIENTED_EDGE('',*,*,#237,.T.);
#349=ORIENTED_EDGE('',*,*,#243,.T.);
#350=ORIENTED_EDGE('',*,*,#244,.T.);
#351=ORIENTED_EDGE('',*,*,#246,.T.);
#352=CYLINDRICAL_SURFACE('',#396,2.5);
#353=CYLINDRICAL_SURFACE('',#399,2.5);
#354=CYLINDRICAL_SURFACE('',#402,2.);
#355=CYLINDRICAL_SURFACE('',#415,2.);
#356=CYLINDRICAL_SURFACE('',#418,2.);
#357=CYLINDRICAL_SURFACE('',#420,2.);
#358=CYLINDRICAL_SURFACE('',#422,2.5);
#359=CYLINDRICAL_SURFACE('',#425,3.50000132371895);
#360=CYLINDRICAL_SURFACE('',#428,3.50000132371895);
#361=CYLINDRICAL_SURFACE('',#430,2.5);
#362=CYLINDRICAL_SURFACE('',#432,2.5);
#363=ADVANCED_FACE('',(#35),#352,.F.);
#364=ADVANCED_FACE('',(#36),#353,.F.);
#365=ADVANCED_FACE('',(#37),#354,.T.);
#366=ADVANCED_FACE('',(#38),#27,.T.);
#367=ADVANCED_FACE('',(#39,#15,#16,#17,#18,#19,#20),#28,.T.);
#368=ADVANCED_FACE('',(#40),#355,.T.);
#369=ADVANCED_FACE('',(#41),#29,.T.);
#370=ADVANCED_FACE('',(#42),#356,.T.);
#371=ADVANCED_FACE('',(#43),#357,.T.);
#372=ADVANCED_FACE('',(#44),#358,.F.);
#373=ADVANCED_FACE('',(#45),#30,.F.);
#374=ADVANCED_FACE('',(#46),#359,.F.);
#375=ADVANCED_FACE('',(#47),#31,.F.);
#376=ADVANCED_FACE('',(#48),#360,.F.);
#377=ADVANCED_FACE('',(#49),#361,.F.);
#378=ADVANCED_FACE('',(#50),#362,.F.);
#379=ADVANCED_FACE('',(#51),#32,.T.);
#380=ADVANCED_FACE('',(#52),#33,.T.);
#381=ADVANCED_FACE('',(#53,#21,#22,#23,#24,#25,#26),#34,.F.);
#382=CLOSED_SHELL('',(#363,#364,#365,#366,#367,#368,#369,#370,#371,#372,
#373,#374,#375,#376,#377,#378,#379,#380,#381));
#383=DERIVED_UNIT_ELEMENT(#385,1.);
#384=DERIVED_UNIT_ELEMENT(#660,-3.);
#385=(
MASS_UNIT()
NAMED_UNIT(*)
SI_UNIT(.KILO.,.GRAM.)
);
#386=DERIVED_UNIT((#383,#384));
#387=MEASURE_REPRESENTATION_ITEM('density measure',
POSITIVE_RATIO_MEASURE(7850.),#386);
#388=PROPERTY_DEFINITION_REPRESENTATION(#393,#390);
#389=PROPERTY_DEFINITION_REPRESENTATION(#394,#391);
#390=REPRESENTATION('material name',(#392),#657);
#391=REPRESENTATION('density',(#387),#657);
#392=DESCRIPTIVE_REPRESENTATION_ITEM('Steel','Steel');
#393=PROPERTY_DEFINITION('material property','material name',#667);
#394=PROPERTY_DEFINITION('material property','density of part',#667);
#395=AXIS2_PLACEMENT_3D('',#550,#437,#438);
#396=AXIS2_PLACEMENT_3D('',#551,#439,#440);
#397=AXIS2_PLACEMENT_3D('',#553,#441,#442);
#398=AXIS2_PLACEMENT_3D('',#556,#444,#445);
#399=AXIS2_PLACEMENT_3D('',#557,#446,#447);
#400=AXIS2_PLACEMENT_3D('',#559,#448,#449);
#401=AXIS2_PLACEMENT_3D('',#562,#451,#452);
#402=AXIS2_PLACEMENT_3D('',#563,#453,#454);
#403=AXIS2_PLACEMENT_3D('',#566,#455,#456);
#404=AXIS2_PLACEMENT_3D('',#570,#458,#459);
#405=AXIS2_PLACEMENT_3D('',#572,#461,#462);
#406=AXIS2_PLACEMENT_3D('',#578,#466,#467);
#407=AXIS2_PLACEMENT_3D('',#582,#469,#470);
#408=AXIS2_PLACEMENT_3D('',#586,#472,#473);
#409=AXIS2_PLACEMENT_3D('',#589,#475,#476);
#410=AXIS2_PLACEMENT_3D('',#591,#477,#478);
#411=AXIS2_PLACEMENT_3D('',#596,#480,#481);
#412=AXIS2_PLACEMENT_3D('',#599,#483,#484);
#413=AXIS2_PLACEMENT_3D('',#601,#485,#486);
#414=AXIS2_PLACEMENT_3D('',#603,#487,#488);
#415=AXIS2_PLACEMENT_3D('',#604,#489,#490);
#416=AXIS2_PLACEMENT_3D('',#608,#492,#493);
#417=AXIS2_PLACEMENT_3D('',#610,#495,#496);
#418=AXIS2_PLACEMENT_3D('',#614,#499,#500);
#419=AXIS2_PLACEMENT_3D('',#616,#501,#502);
#420=AXIS2_PLACEMENT_3D('',#618,#504,#505);
#421=AXIS2_PLACEMENT_3D('',#621,#507,#508);
#422=AXIS2_PLACEMENT_3D('',#622,#509,#510);
#423=AXIS2_PLACEMENT_3D('',#624,#511,#512);
#424=AXIS2_PLACEMENT_3D('',#626,#514,#515);
#425=AXIS2_PLACEMENT_3D('',#632,#519,#520);
#426=AXIS2_PLACEMENT_3D('',#634,#521,#522);
#427=AXIS2_PLACEMENT_3D('',#636,#524,#525);
#428=AXIS2_PLACEMENT_3D('',#640,#528,#529);
#429=AXIS2_PLACEMENT_3D('',#641,#530,#531);
#430=AXIS2_PLACEMENT_3D('',#642,#532,#533);
#431=AXIS2_PLACEMENT_3D('',#644,#534,#535);
#432=AXIS2_PLACEMENT_3D('',#646,#537,#538);
#433=AXIS2_PLACEMENT_3D('',#648,#539,#540);
#434=AXIS2_PLACEMENT_3D('',#650,#542,#543);
#435=AXIS2_PLACEMENT_3D('',#652,#545,#546);
#436=AXIS2_PLACEMENT_3D('',#654,#548,#549);
#437=DIRECTION('axis',(0.,0.,1.));
#438=DIRECTION('refdir',(1.,0.,0.));
#439=DIRECTION('center_axis',(0.,-1.,0.));
#440=DIRECTION('ref_axis',(0.,0.,1.));
#441=DIRECTION('center_axis',(0.,-1.,0.));
#442=DIRECTION('ref_axis',(0.,0.,1.));
#443=DIRECTION('',(0.,-1.,0.));
#444=DIRECTION('center_axis',(0.,1.,0.));
#445=DIRECTION('ref_axis',(0.,0.,1.));
#446=DIRECTION('center_axis',(0.,-1.,0.));
#447=DIRECTION('ref_axis',(0.,0.,1.));
#448=DIRECTION('center_axis',(0.,-1.,0.));
#449=DIRECTION('ref_axis',(0.,0.,1.));
#450=DIRECTION('',(0.,-1.,0.));
#451=DIRECTION('center_axis',(0.,1.,0.));
#452=DIRECTION('ref_axis',(0.,0.,1.));
#453=DIRECTION('center_axis',(0.,1.,0.));
#454=DIRECTION('ref_axis',(0.707106781186546,0.,0.707106781186549));
#455=DIRECTION('center_axis',(0.,-1.,0.));
#456=DIRECTION('ref_axis',(0.707106781186546,0.,0.707106781186549));
#457=DIRECTION('',(0.,-1.,0.));
#458=DIRECTION('center_axis',(0.,1.,0.));
#459=DIRECTION('ref_axis',(0.707106781186546,0.,0.707106781186549));
#460=DIRECTION('',(0.,1.,0.));
#461=DIRECTION('center_axis',(0.,0.,1.));
#462=DIRECTION('ref_axis',(1.,0.,0.));
#463=DIRECTION('',(1.,0.,0.));
#464=DIRECTION('',(0.,1.,0.));
#465=DIRECTION('',(-1.,0.,0.));
#466=DIRECTION('center_axis',(0.,1.,0.));
#467=DIRECTION('ref_axis',(0.,0.,1.));
#468=DIRECTION('',(0.,0.,-1.));
#469=DIRECTION('center_axis',(0.,-1.,0.));
#470=DIRECTION('ref_axis',(0.707106781186546,0.,-0.707106781186549));
#471=DIRECTION('',(-1.,0.,3.60599649161865E-33));
#472=DIRECTION('center_axis',(0.,-1.,0.));
#473=DIRECTION('ref_axis',(-0.707106781186548,0.,-0.707106781186547));
#474=DIRECTION('',(7.47027372368382E-33,0.,1.));
#475=DIRECTION('center_axis',(0.,-1.,0.));
#476=DIRECTION('ref_axis',(-0.707106781186547,0.,0.707106781186548));
#477=DIRECTION('center_axis',(0.,-1.,0.));
#478=DIRECTION('ref_axis',(0.,0.,-1.));
#479=DIRECTION('',(1.,0.,0.));
#480=DIRECTION('center_axis',(0.,-1.,0.));
#481=DIRECTION('ref_axis',(0.,0.,-1.));
#482=DIRECTION('',(-1.,0.,0.));
#483=DIRECTION('center_axis',(0.,-1.,0.));
#484=DIRECTION('ref_axis',(0.,0.,1.));
#485=DIRECTION('center_axis',(0.,-1.,0.));
#486=DIRECTION('ref_axis',(0.,0.,-1.));
#487=DIRECTION('center_axis',(0.,-1.,0.));
#488=DIRECTION('ref_axis',(0.,0.,-1.));
#489=DIRECTION('center_axis',(0.,1.,0.));
#490=DIRECTION('ref_axis',(0.707106781186546,0.,-0.707106781186549));
#491=DIRECTION('',(0.,-1.,0.));
#492=DIRECTION('center_axis',(0.,1.,0.));
#493=DIRECTION('ref_axis',(0.707106781186546,0.,-0.707106781186549));
#494=DIRECTION('',(0.,1.,0.));
#495=DIRECTION('center_axis',(-3.60599649161865E-33,0.,-1.));
#496=DIRECTION('ref_axis',(-1.,0.,3.60599649161865E-33));
#497=DIRECTION('',(1.,0.,-3.60599649161865E-33));
#498=DIRECTION('',(0.,-1.,0.));
#499=DIRECTION('center_axis',(0.,1.,0.));
#500=DIRECTION('ref_axis',(-0.707106781186548,0.,-0.707106781186547));
#501=DIRECTION('center_axis',(0.,1.,0.));
#502=DIRECTION('ref_axis',(-0.707106781186548,0.,-0.707106781186547));
#503=DIRECTION('',(0.,1.,0.));
#504=DIRECTION('center_axis',(0.,1.,0.));
#505=DIRECTION('ref_axis',(-0.707106781186547,0.,0.707106781186548));
#506=DIRECTION('',(0.,-1.,0.));
#507=DIRECTION('center_axis',(0.,1.,0.));
#508=DIRECTION('ref_axis',(-0.707106781186547,0.,0.707106781186548));
#509=DIRECTION('center_axis',(0.,1.,0.));
#510=DIRECTION('ref_axis',(0.,0.,-1.));
#511=DIRECTION('center_axis',(0.,1.,0.));
#512=DIRECTION('ref_axis',(0.,0.,-1.));
#513=DIRECTION('',(0.,1.,0.));
#514=DIRECTION('center_axis',(0.,0.,1.));
#515=DIRECTION('ref_axis',(1.,0.,0.));
#516=DIRECTION('',(0.,1.,0.));
#517=DIRECTION('',(1.,0.,0.));
#518=DIRECTION('',(0.,1.,0.));
#519=DIRECTION('center_axis',(0.,1.,0.));
#520=DIRECTION('ref_axis',(0.,0.,1.));
#521=DIRECTION('center_axis',(0.,1.,0.));
#522=DIRECTION('ref_axis',(0.,0.,1.));
#523=DIRECTION('',(0.,1.,0.));
#524=DIRECTION('center_axis',(0.,0.,-1.));
#525=DIRECTION('ref_axis',(-1.,0.,0.));
#526=DIRECTION('',(-1.,0.,0.));
#527=DIRECTION('',(0.,1.,0.));
#528=DIRECTION('center_axis',(0.,1.,0.));
#529=DIRECTION('ref_axis',(0.,0.,-1.));
#530=DIRECTION('center_axis',(0.,1.,0.));
#531=DIRECTION('ref_axis',(0.,0.,-1.));
#532=DIRECTION('center_axis',(0.,1.,0.));
#533=DIRECTION('ref_axis',(0.,0.,-1.));
#534=DIRECTION('center_axis',(0.,1.,0.));
#535=DIRECTION('ref_axis',(0.,0.,-1.));
#536=DIRECTION('',(0.,1.,0.));
#537=DIRECTION('center_axis',(0.,1.,0.));
#538=DIRECTION('ref_axis',(0.,0.,-1.));
#539=DIRECTION('center_axis',(0.,1.,0.));
#540=DIRECTION('ref_axis',(0.,0.,-1.));
#541=DIRECTION('',(0.,1.,0.));
#542=DIRECTION('center_axis',(-1.,0.,7.47027372368382E-33));
#543=DIRECTION('ref_axis',(7.47027372368382E-33,0.,1.));
#544=DIRECTION('',(-7.47027372368382E-33,0.,-1.));
#545=DIRECTION('center_axis',(1.,0.,0.));
#546=DIRECTION('ref_axis',(0.,0.,-1.));
#547=DIRECTION('',(0.,0.,1.));
#548=DIRECTION('center_axis',(0.,1.,0.));
#549=DIRECTION('ref_axis',(1.,0.,0.));
#550=CARTESIAN_POINT('',(0.,0.,0.));
#551=CARTESIAN_POINT('Origin',(58.61,0.675,28.5));
#552=CARTESIAN_POINT('',(58.61,1.5,26.));
#553=CARTESIAN_POINT('Origin',(58.61,1.5,28.5));
#554=CARTESIAN_POINT('',(58.61,0.,26.));
#555=CARTESIAN_POINT('',(58.61,0.675,26.));
#556=CARTESIAN_POINT('Origin',(58.61,0.,28.5));
#557=CARTESIAN_POINT('Origin',(58.61,0.675,4.50000000000003));
#558=CARTESIAN_POINT('',(58.61,1.5,2.00000000000003));
#559=CARTESIAN_POINT('Origin',(58.61,1.5,4.50000000000003));
#560=CARTESIAN_POINT('',(58.61,0.,2.00000000000003));
#561=CARTESIAN_POINT('',(58.61,0.675,2.00000000000003));
#562=CARTESIAN_POINT('Origin',(58.61,0.,4.50000000000003));
#563=CARTESIAN_POINT('Origin',(92.,0.,31.));
#564=CARTESIAN_POINT('',(94.,1.5,31.));
#565=CARTESIAN_POINT('',(92.,1.5,33.));
#566=CARTESIAN_POINT('Origin',(92.,1.5,31.));
#567=CARTESIAN_POINT('',(92.,0.,33.));
#568=CARTESIAN_POINT('',(92.,0.,33.));
#569=CARTESIAN_POINT('',(94.,0.,31.));
#570=CARTESIAN_POINT('Origin',(92.,0.,31.));
#571=CARTESIAN_POINT('',(94.,0.,31.));
#572=CARTESIAN_POINT('Origin',(0.,0.,33.));
#573=CARTESIAN_POINT('',(1.99999999999999,1.5,33.));
#574=CARTESIAN_POINT('',(94.,1.5,33.));
#575=CARTESIAN_POINT('',(1.99999999999999,0.,33.));
#576=CARTESIAN_POINT('',(2.,0.,33.));
#577=CARTESIAN_POINT('',(94.,0.,33.));
#578=CARTESIAN_POINT('Origin',(47.,1.5,16.5));
#579=CARTESIAN_POINT('',(94.,1.5,2.));
#580=CARTESIAN_POINT('',(94.,1.5,-3.38963670212154E-31));
#581=CARTESIAN_POINT('',(92.,1.5,-3.31751677228916E-31));
#582=CARTESIAN_POINT('Origin',(92.,1.5,2.));
#583=CARTESIAN_POINT('',(2.,1.5,-7.21199298323731E-33));
#584=CARTESIAN_POINT('',(0.,1.5,0.));
#585=CARTESIAN_POINT('',(1.49405474473677E-32,1.5,2.));
#586=CARTESIAN_POINT('Origin',(2.,1.5,2.));
#587=CARTESIAN_POINT('',(2.31578485434199E-31,1.5,31.));
#588=CARTESIAN_POINT('',(2.46519032881566E-31,1.5,33.));
#589=CARTESIAN_POINT('Origin',(2.,1.5,31.));
#590=CARTESIAN_POINT('',(6.9,1.5,19.));
#591=CARTESIAN_POINT('Origin',(6.9,1.5,16.5));
#592=CARTESIAN_POINT('',(58.,1.5,12.9999986762811));
#593=CARTESIAN_POINT('',(80.,1.5,12.9999986762811));
#594=CARTESIAN_POINT('',(63.5,1.5,12.9999986762811));
#595=CARTESIAN_POINT('',(80.,1.5,20.000001323719));
#596=CARTESIAN_POINT('Origin',(80.,1.5,16.5));
#597=CARTESIAN_POINT('',(58.,1.5,20.000001323719));
#598=CARTESIAN_POINT('',(52.5,1.5,20.000001323719));
#599=CARTESIAN_POINT('Origin',(58.,1.5,16.5));
#600=CARTESIAN_POINT('',(48.61,1.5,19.));
#601=CARTESIAN_POINT('Origin',(48.61,1.5,16.5));
#602=CARTESIAN_POINT('',(89.,1.5,19.));
#603=CARTESIAN_POINT('Origin',(89.,1.5,16.5));
#604=CARTESIAN_POINT('Origin',(92.,0.,2.));
#605=CARTESIAN_POINT('',(94.,0.,2.));
#606=CARTESIAN_POINT('',(94.,0.,2.));
#607=CARTESIAN_POINT('',(92.,0.,-3.31751677228916E-31));
#608=CARTESIAN_POINT('Origin',(92.,0.,2.));
#609=CARTESIAN_POINT('',(92.,0.,0.));
#610=CARTESIAN_POINT('Origin',(94.,0.,-3.38963670212154E-31));
#611=CARTESIAN_POINT('',(2.,0.,-7.21199298323731E-33));
#612=CARTESIAN_POINT('',(0.,0.,0.));
#613=CARTESIAN_POINT('',(2.,0.,0.));
#614=CARTESIAN_POINT('Origin',(2.,0.,2.));
#615=CARTESIAN_POINT('',(1.49405474473677E-32,0.,2.));
#616=CARTESIAN_POINT('Origin',(2.,0.,2.));
#617=CARTESIAN_POINT('',(0.,0.,2.));
#618=CARTESIAN_POINT('Origin',(2.,0.,31.));
#619=CARTESIAN_POINT('',(2.31578485434199E-31,0.,31.));
#620=CARTESIAN_POINT('',(0.,0.,31.));
#621=CARTESIAN_POINT('Origin',(2.,0.,31.));
#622=CARTESIAN_POINT('Origin',(6.9,0.825,16.5));
#623=CARTESIAN_POINT('',(6.9,0.,19.));
#624=CARTESIAN_POINT('Origin',(6.9,0.,16.5));
#625=CARTESIAN_POINT('',(6.9,0.825,19.));
#626=CARTESIAN_POINT('Origin',(58.,0.,20.000001323719));
#627=CARTESIAN_POINT('',(80.,0.,20.000001323719));
#628=CARTESIAN_POINT('',(80.,0.,20.000001323719));
#629=CARTESIAN_POINT('',(58.,0.,20.000001323719));
#630=CARTESIAN_POINT('',(52.5,0.,20.000001323719));
#631=CARTESIAN_POINT('',(58.,0.,20.000001323719));
#632=CARTESIAN_POINT('Origin',(58.,0.,16.5));
#633=CARTESIAN_POINT('',(58.,0.,12.9999986762811));
#634=CARTESIAN_POINT('Origin',(58.,0.,16.5));
#635=CARTESIAN_POINT('',(58.,0.,12.9999986762811));
#636=CARTESIAN_POINT('Origin',(80.,0.,12.9999986762811));
#637=CARTESIAN_POINT('',(80.,0.,12.9999986762811));
#638=CARTESIAN_POINT('',(63.5,0.,12.9999986762811));
#639=CARTESIAN_POINT('',(80.,0.,12.9999986762811));
#640=CARTESIAN_POINT('Origin',(80.,0.,16.5));
#641=CARTESIAN_POINT('Origin',(80.,0.,16.5));
#642=CARTESIAN_POINT('Origin',(48.61,0.825,16.5));
#643=CARTESIAN_POINT('',(48.61,0.,19.));
#644=CARTESIAN_POINT('Origin',(48.61,0.,16.5));
#645=CARTESIAN_POINT('',(48.61,0.825,19.));
#646=CARTESIAN_POINT('Origin',(89.,0.825,16.5));
#647=CARTESIAN_POINT('',(89.,0.,19.));
#648=CARTESIAN_POINT('Origin',(89.,0.,16.5));
#649=CARTESIAN_POINT('',(89.,0.825,19.));
#650=CARTESIAN_POINT('Origin',(2.73691106313441E-47,0.,0.));
#651=CARTESIAN_POINT('',(2.46519032881566E-31,0.,33.));
#652=CARTESIAN_POINT('Origin',(94.,0.,33.));
#653=CARTESIAN_POINT('',(94.,0.,-3.38963670212154E-31));
#654=CARTESIAN_POINT('Origin',(47.,0.,16.5));
#655=UNCERTAINTY_MEASURE_WITH_UNIT(LENGTH_MEASURE(0.01),#659,
'DISTANCE_ACCURACY_VALUE',
'Maximum model space distance between geometric entities at asserted c
onnectivities');
#656=UNCERTAINTY_MEASURE_WITH_UNIT(LENGTH_MEASURE(0.01),#659,
'DISTANCE_ACCURACY_VALUE',
'Maximum model space distance between geometric entities at asserted c
onnectivities');
#657=(
GEOMETRIC_REPRESENTATION_CONTEXT(3)
GLOBAL_UNCERTAINTY_ASSIGNED_CONTEXT((#655))
GLOBAL_UNIT_ASSIGNED_CONTEXT((#659,#661,#662))
REPRESENTATION_CONTEXT('','3D')
);
#658=(
GEOMETRIC_REPRESENTATION_CONTEXT(3)
GLOBAL_UNCERTAINTY_ASSIGNED_CONTEXT((#656))
GLOBAL_UNIT_ASSIGNED_CONTEXT((#659,#661,#662))
REPRESENTATION_CONTEXT('','3D')
);
#659=(
LENGTH_UNIT()
NAMED_UNIT(*)
SI_UNIT(.MILLI.,.METRE.)
);
#660=(
LENGTH_UNIT()
NAMED_UNIT(*)
SI_UNIT($,.METRE.)
);
#661=(
NAMED_UNIT(*)
PLANE_ANGLE_UNIT()
SI_UNIT($,.RADIAN.)
);
#662=(
NAMED_UNIT(*)
SI_UNIT($,.STERADIAN.)
SOLID_ANGLE_UNIT()
);
#663=SHAPE_DEFINITION_REPRESENTATION(#664,#665);
#664=PRODUCT_DEFINITION_SHAPE('',$,#667);
#665=SHAPE_REPRESENTATION('',(#395),#657);
#666=PRODUCT_DEFINITION_CONTEXT('part definition',#671,'design');
#667=PRODUCT_DEFINITION('Servo Mount','Servo Mount v23',#668,#666);
#668=PRODUCT_DEFINITION_FORMATION('',$,#673);
#669=PRODUCT_RELATED_PRODUCT_CATEGORY('Servo Mount v23',
'Servo Mount v23',(#673));
#670=APPLICATION_PROTOCOL_DEFINITION('international standard',
'automotive_design',2009,#671);
#671=APPLICATION_CONTEXT(
'Core Data for Automotive Mechanical Design Process');
#672=PRODUCT_CONTEXT('part definition',#671,'mechanical');
#673=PRODUCT('Servo Mount','Servo Mount v23',$,(#672));
#674=PRESENTATION_STYLE_ASSIGNMENT((#676));
#675=PRESENTATION_STYLE_ASSIGNMENT((#677));
#676=SURFACE_STYLE_USAGE(.BOTH.,#678);
#677=SURFACE_STYLE_USAGE(.BOTH.,#679);
#678=SURFACE_SIDE_STYLE('',(#680));
#679=SURFACE_SIDE_STYLE('',(#681));
#680=SURFACE_STYLE_FILL_AREA(#682);
#681=SURFACE_STYLE_FILL_AREA(#683);
#682=FILL_AREA_STYLE('Steel - Satin',(#684));
#683=FILL_AREA_STYLE('Aluminum - Satin',(#685));
#684=FILL_AREA_STYLE_COLOUR('Steel - Satin',#686);
#685=FILL_AREA_STYLE_COLOUR('Aluminum - Satin',#687);
#686=COLOUR_RGB('Steel - Satin',0.627450980392157,0.627450980392157,0.627450980392157);
#687=COLOUR_RGB('Aluminum - Satin',0.96078431372549,0.96078431372549,0.964705882352941);
ENDSEC;
END-ISO-10303-21;
